<?xml version="1.0"?>
<svg xmlns="http://www.w3.org/2000/svg" version="1.2" baseProfile="tiny" width="800" height="281" viewBox="0 0 800 281" stroke-linecap="round" stroke-linejoin="round">
<g id="senate">
<path d="M 663.1702 152.0451 664.5277 153.2805 664.2793 154.5396 661.2859 156.065 657.3171 155.1779 656.007 156.0353 650.7486 154.2756 650.0387 153.4421 646.7654 154.3532 645.385 156.1428 645.1593 157.8786 643.4024 159.9711 638.7841 161.8923 638.3819 161.1006 638.4796 159.0511 635.8674 159.849 631.6327 169.3533 629.8977 173.7712 629.794 174.805 630.8555 175.7543 630.9365 176.8445 632.9844 177.9848 632.4435 178.5622 632.9888 180.1526 632.4814 180.9136 633.6636 182.2597 633.8368 185.0889 633.0823 187.9162 634.4019 189.8707 633.6731 191.6038 632.7997 192.0037 633.4327 193.7418 632.7704 196.766 634.2494 197.3556 635.7854 198.4672 635.3847 199.8459 636.8681 200.5573 637.381 202.2302 635.1732 202.7163 637.6721 205.5631 632.8242 209.4264 632.8311 214.5266 634.5055 216.2065 633.3542 218.5804 634.0961 219.6789 633.8476 220.5613 634.0666 223.3474 636.9329 226.1415 635.7909 227.2175 637.2554 233.5307 636.0375 233.6316 634.9712 233.054 628.813 231.7121 629.4114 233.2423 630.503 233.3242 631.204 234.1713 630.2554 235.2209 630.3879 236.2339 629.6974 237.0928 626.6851 237.9733 625.5539 239.259 624.4847 238.8319 623.211 239.8994 623.3104 241.0762 621.0726 241.3473 620.67 242.1293 619.0145 242.3647 618.0795 243.9825 616.604 244.3065 616.1502 245.5117 614.9876 245.9331 613.2139 247.2129 608.6939 247.8265 606.9058 249.6681 607.11 250.995 605.8187 252.1405 605.7599 253.5725 603.6512 254.2264 603.5865 255.2892 602.5845 257.1582 600.9678 258.0709 599.9415 257.1902 599.176 257.6282 598.4708 260.7057 594.3768 262.7285 593.5662 262.771 590.3148 264.379 590.5749 265.3115 592.8234 267.1738 593.6327 268.8802 592.9977 270.4572 585.7367 270.2292 575.0083 270.0757 561.8751 269.9989 561.7424 269.1312 560.5835 267.756 557.2322 265.5881 555.4493 263.8044 553.4465 261.0768 552.1691 257.6089 551.8335 254.6728 551.8665 252.4604 550.858 252.2883 550.2997 250.8044 548.9955 250.1434 548.9649 248.5638 549.5061 247.6147 548.4427 246.7312 550.2193 245.4493 552.0855 244.8323 550.6788 244.0685 551.5767 242.3271 551.6246 240.6172 552.5859 239.8053 551.9445 237.9226 553.8131 236.2727 553.1341 234.1929 554.5152 232.7494 556.7467 231.0825 558.4016 230.9608 562.0704 232.7508 565.7677 232.5619 567.4447 233.3419 569.7902 231.7495 569.9197 230.4804 571.6821 230.3285 575.8103 231.7841 577.6918 230.2361 579.2482 229.5563 581.349 229.5047 582.3138 228.2508 584.7204 228.395 585.8389 229.02 589.9935 229.4657 590.8016 228.3696 592.4709 227.5036 592.6316 226.3656 593.8816 224.2953 593.882 223.2255 595.7785 223.4668 597.1894 222.4413 598.7209 222.0236 599.2074 220.9221 597.4982 219.1822 599.1243 218.576 600.1595 217.4417 599.7169 216.1071 597.73 214.557 595.8418 215.4246 594.1893 215.5024 592.4994 214.0829 592.7713 213.5278 591.1463 211.0652 589.4595 209.6 588.9854 208.6597 590.3058 207.9363 591.9531 205.2727 591.6151 200.4491 591.9919 199.896 594.2091 199.5669 596.0611 200.3499 596.2211 199.152 597.4588 197.8343 597.4516 196.9843 598.6573 196.0436 598.1177 194.751 600.0896 194.789 604.4451 192.1908 607.5341 192.3074 608.6081 190.9331 606.4851 189.0725 604.8411 186.8268 603.6901 183.7133 602.5281 182.3738 602.2615 180.7949 601.4782 179.9184 599.887 179.5469 597.9106 176.8147 598.1925 174.9074 597.5179 174.2062 597.7732 172.5672 595.6417 169.9181 600.6242 162.9343 599.7981 162.232 603.3151 160.0866 604.9513 160.4189 605.8694 160.1102 604.3048 157.6011 605.65 156.7918 606.4911 155.7244 608.7389 154.6607 612.0449 151.7814 616.3806 151.6444 624.4532 140.1809 625.5462 139.1838 627.1026 139.4594 628.7277 140.9207 631.8038 140.7048 634.3634 140.1614 636.4243 137.4061 638.7251 136.3353 639.8644 137.1195 639.8609 138.2296 642.8982 138.3591 645.2357 140.8398 650.1278 141.4121 650.2719 142.6315 652.4424 142.9297 655.2258 144.9316 656.3202 144.9987 655.6205 147.2166 657.9677 148.1324 658.6312 148.8882 659.9474 148.731 661.0654 149.5137 661.168 151.3857 663.1702 152.0451 Z"/>
<path d="M 642.3003 262.3345 642.4637 258.9108 640.2891 257.5959 638.1152 255.1355 639.1477 252.6373 639.6976 249.8685 636.9777 247.335 640.1284 242.9381 638.8524 241.4252 638.5521 239.2301 638.906 238.282 640.3134 238.1688 642.8502 239.3098 644.9594 238.2367 645.2434 238.7654 647.8002 238.6137 649.0438 237.0169 648.4482 235.8874 650.3252 234.8565 656.6895 233.2991 660.0741 232.0906 663.3961 230.3264 665.523 228.5835 666.5113 226.7699 670.9548 226.4551 671.5571 225.8173 673.8072 224.8753 676.3391 226.6214 677.6371 226.4559 679.1467 227.9138 681.762 226.8622 682.4081 226.1352 684.5713 225.4386 684.7476 223.378 683.1515 222.6124 684.6641 221.0294 686.1956 220.5316 685.7603 219.7609 686.4528 218.8081 685.3792 217.3862 685.7691 216.2673 684.3079 214.9279 685.0351 213.3948 686.9491 210.5074 686.671 209.6413 688.9296 208.3762 690.6714 206.4206 690.0768 205.4566 687.2249 204.2349 684.9868 204.3416 683.6123 202.7164 683.3022 200.8993 680.0271 202.2765 678.5164 201.7237 677.4735 200.0868 677.3312 198.8068 678.1651 195.9615 679.0968 195.6077 678.4878 194.4063 679.1273 193.2941 678.9386 191.0063 676.548 178.9361 680.9107 174.6288 680.7513 172.5043 683.4693 172.5608 683.8633 171.7291 685.4178 171.7645 688.0865 173.6786 691.7116 174.2004 693.3848 174.6438 696.5427 174.2781 696.8478 175.5032 698.6373 175.7817 700.2422 175.2457 700.0698 174.4792 702.0634 172.4204 701.9486 171.0599 702.3525 167.6273 700.957 166.3313 701.5455 165.1152 700.7577 164.4549 700.5263 163.2092 700.9597 160.9966 700.2457 158.7231 696.7507 156.6286 696.3677 155.6995 696.904 151.6576 698.3214 151.3386 701.1085 153.0287 703.6737 151.3446 704.2436 150.31 706.9293 150.2662 713.1814 148.5293 715.1303 148.9768 715.6463 147.498 718.288 148.6438 719.3825 148.2329 721.304 149.2178 723.7525 149.6571 725.1065 150.6905 727.0303 150.5746 728.3921 151.253 730.0744 152.2989 732.9088 153.3776 733.7 154.1547 735.1287 153.9586 736.3422 154.5213 736.3131 155.3028 732.8889 155.617 731.1432 156.5012 731.3296 157.4931 732.8543 159.4354 730.4925 171.5393 730.1406 173.7685 732.9015 174.1397 733.7295 177.1394 734.2738 177.9474 733.6712 178.9398 733.8628 180.0857 732.4658 181.1581 732.7165 181.8791 731.314 184.1279 730.7019 186.1789 729.671 186.9828 727.0408 187.028 725.7087 188.1501 725.9751 189.0961 727.2134 190.064 725.3385 193.2387 725.0729 194.7606 723.8659 194.5883 722.1722 195.4076 722.1482 196.4793 718.7398 198.5185 719.7214 199.2898 722.1855 200.1724 721.916 201.5757 722.746 202.4087 725.0007 203.1139 725.9026 202.2913 727.0123 202.2564 728.1244 201.2542 729.6337 200.9748 730.3016 201.7133 732.7285 203.0927 733.2878 204.6013 735.2342 205.3914 736.3028 206.4172 733.5245 207.769 732.9355 208.4227 730.1912 209.7497 729.1092 210.8296 727.3963 211.0649 726.7944 211.7248 723.9691 212.643 720.5835 214.2327 719.392 215.2092 719.8546 215.9966 719.3936 219.3311 719.819 222.327 717.6857 222.5536 717.1552 224.4754 715.9836 224.1686 714.0999 225.3709 713.4765 226.235 708.6636 226.4479 708.4408 227.7365 706.9599 228.7608 706.0356 228.6211 704.3722 229.8641 704.7357 231.4206 705.5731 231.9156 705.1391 233.2329 705.6278 234.5474 703.5565 236.6924 704.5432 237.579 703.378 238.7151 697.2278 241.024 695.7504 241.1515 693.9148 242.0029 690.835 242.1558 689.9964 243.0951 687.9253 242.2763 685.6698 242.6702 683.0421 242.3779 682.4883 243.8106 680.2012 244.8314 680.3506 246.6871 678.2043 249.1953 676.7033 249.7325 677.1488 250.6589 677.1455 253.0689 676.5051 254.1487 673.5659 254.4993 670.2988 254.4761 667.2061 255.4508 660.4283 257.1927 658.1807 257.5159 654.2003 258.6148 653.083 259.3004 650.0888 260.0447 649.1709 261.0142 646.7435 261.9273 642.3003 262.3345 Z"/>
<path d="M 642.3003 262.3345 640.1685 262.2173 638.9639 261.7738 636.9379 261.8327 634.8077 262.3525 633.6057 263.3245 631.6567 263.7672 631.0872 264.3143 626.2547 265.4933 625.7965 266.1526 622.5374 267.396 619.7136 269.3792 618.1843 270.9935 607.6971 270.8482 592.9977 270.4572 593.6327 268.8802 592.8234 267.1738 590.5749 265.3115 590.3148 264.379 593.5662 262.771 594.3768 262.7285 598.4708 260.7057 599.176 257.6282 599.9415 257.1902 600.9678 258.0709 602.5845 257.1582 603.5865 255.2892 603.6512 254.2264 605.7599 253.5725 605.8187 252.1405 607.11 250.995 606.9058 249.6681 608.6939 247.8265 613.2139 247.2129 614.9876 245.9331 616.1502 245.5117 616.604 244.3065 618.0795 243.9825 619.0145 242.3647 620.67 242.1293 621.0726 241.3473 623.3104 241.0762 623.211 239.8994 624.4847 238.8319 625.5539 239.259 626.6851 237.9733 629.6974 237.0928 630.3879 236.2339 630.2554 235.2209 631.204 234.1713 630.503 233.3242 629.4114 233.2423 628.813 231.7121 634.9712 233.054 636.0375 233.6316 637.2554 233.5307 635.7909 227.2175 636.9329 226.1415 634.0666 223.3474 633.8476 220.5613 634.0961 219.6789 633.3542 218.5804 634.5055 216.2065 632.8311 214.5266 632.8242 209.4264 637.6721 205.5631 635.1732 202.7163 637.381 202.2302 636.8681 200.5573 635.3847 199.8459 635.7854 198.4672 634.2494 197.3556 632.7704 196.766 633.4327 193.7418 632.7997 192.0037 633.6731 191.6038 634.4019 189.8707 633.0823 187.9162 633.8368 185.0889 633.6636 182.2597 632.4814 180.9136 632.9888 180.1526 632.4435 178.5622 632.9844 177.9848 630.9365 176.8445 630.8555 175.7543 629.794 174.805 629.8977 173.7712 631.6327 169.3533 635.8674 159.849 638.4796 159.0511 638.3819 161.1006 638.7841 161.8923 643.4024 159.9711 645.1593 157.8786 645.385 156.1428 646.7654 154.3532 650.0387 153.4421 650.7486 154.2756 656.007 156.0353 657.3171 155.1779 661.2859 156.065 664.2793 154.5396 664.5277 153.2805 663.1702 152.0451 665.164 149.4216 665.164 148.7455 662.308 146.3413 664.4414 145.0797 667.775 142.5297 668.8717 140.8406 670.2862 141.0793 671.9569 140.5901 672.436 139.4907 678.7976 136.1022 676.9034 133.0926 681.3027 133.3424 682.8591 134.0658 684.7257 135.4676 686.2224 135.2455 686.5132 133.9833 688.3339 134.9467 688.4299 135.7027 690.1988 136.6152 690.7678 135.697 692.3525 134.9149 693.0778 133.0147 694.4341 131.9785 694.7107 130.9697 693.2737 129.0847 691.8523 125.3373 692.9869 124.4817 693.1252 123.4326 694.2733 122.4363 696.1511 121.7544 697.8582 122.1621 703.7833 124.1556 708.3597 125.1803 718.3264 130.6035 724.5945 133.1332 731.3684 134.5074 729.698 135.0247 727.5105 136.5843 725.2291 137.3967 725.5153 138.1324 727.0432 139.2678 726.9327 141.8434 724.8584 144.1693 727.0454 145.1666 726.5227 146.2167 726.8429 147.8468 728.0452 149.0034 727.7615 149.6278 728.3921 151.253 727.0303 150.5746 725.1065 150.6905 723.7525 149.6571 721.304 149.2178 719.3825 148.2329 718.288 148.6438 715.6463 147.498 715.1303 148.9768 713.1814 148.5293 706.9293 150.2662 704.2436 150.31 703.6737 151.3446 701.1085 153.0287 698.3214 151.3386 696.904 151.6576 696.3677 155.6995 696.7507 156.6286 700.2457 158.7231 700.9597 160.9966 700.5263 163.2092 700.7577 164.4549 701.5455 165.1152 700.957 166.3313 702.3525 167.6273 701.9486 171.0599 702.0634 172.4204 700.0698 174.4792 700.2422 175.2457 698.6373 175.7817 696.8478 175.5032 696.5427 174.2781 693.3848 174.6438 691.7116 174.2004 688.0865 173.6786 685.4178 171.7645 683.8633 171.7291 683.4693 172.5608 680.7513 172.5043 680.9107 174.6288 676.548 178.9361 678.9386 191.0063 679.1273 193.2941 678.4878 194.4063 679.0968 195.6077 678.1651 195.9615 677.3312 198.8068 677.4735 200.0868 678.5164 201.7237 680.0271 202.2765 683.3022 200.8993 683.6123 202.7164 684.9868 204.3416 687.2249 204.2349 690.0768 205.4566 690.6714 206.4206 688.9296 208.3762 686.671 209.6413 686.9491 210.5074 685.0351 213.3948 684.3079 214.9279 685.7691 216.2673 685.3792 217.3862 686.4528 218.8081 685.7603 219.7609 686.1956 220.5316 684.6641 221.0294 683.1515 222.6124 684.7476 223.378 684.5713 225.4386 682.4081 226.1352 681.762 226.8622 679.1467 227.9138 677.6371 226.4559 676.3391 226.6214 673.8072 224.8753 671.5571 225.8173 670.9548 226.4551 666.5113 226.7699 665.523 228.5835 663.3961 230.3264 660.0741 232.0906 656.6895 233.2991 650.3252 234.8565 648.4482 235.8874 649.0438 237.0169 647.8002 238.6137 645.2434 238.7654 644.9594 238.2367 642.8502 239.3098 640.3134 238.1688 638.906 238.282 638.5521 239.2301 638.8524 241.4252 640.1284 242.9381 636.9777 247.335 639.6976 249.8685 639.1477 252.6373 638.1152 255.1355 640.2891 257.5959 642.4637 258.9108 642.3003 262.3345 Z"/>
<path d="M 595.8169 40.9421 598.9174 41.5157 601.2245 42.6702 601.8722 43.671 602.4547 45.8057 604.4562 47.1171 606.8442 47.6229 608.3607 48.4788 609.269 51.6226 609.8519 52.7653 612.5551 53.5284 614.7514 53.6896 620.5008 55.851 621.9557 55.6342 623.0428 54.7419 624.0501 51.2318 626.5156 49.7315 631.0515 48.8275 633.7093 48.0697 636.0304 47.7932 639.1946 48.8605 641.5534 50.7002 643.788 51.2475 646.8416 51.4908 651.0582 52.1388 653.2169 52.9177 656.3004 54.6606 656.903 55.4641 657.2688 57.5379 658.55 58.6523 660.4551 58.8185 663.0917 56.3072 664.9492 55.6226 667.1453 56.0435 669.5439 56.8837 674.4728 56.4585 676.5435 55.2751 677.8164 52.4516 678.9256 51.0826 684.1187 49.2286 686.2405 47.265 687.448 45.4323 687.7246 45.8447 686.6957 48.1439 688.158 49.9352 687.1324 50.3036 686.6641 51.772 685.0634 52.6334 685.5514 53.517 684.9605 54.4777 682.9926 55.1617 683.3846 56.3453 682.2073 57.5432 682.9585 59.6512 682.0919 59.9098 680.8458 61.4612 679.7605 63.7317 677.8774 65.4305 675.2947 65.9877 675.1663 66.8542 673.1608 68.8127 671.3209 69.6243 670.9518 70.9217 671.1218 72.3885 669.9515 72.8636 669.6446 74.0316 668.3506 74.6501 667.5266 76.3385 666.1792 76.6921 665.768 77.9777 665.9353 81.3189 666.2628 82.8783 665.537 84.3525 666.243 86.1397 664.7265 86.9836 661.0643 87.6706 659.8957 87.0782 656.4987 87.0985 656.0636 88.0088 654.8603 88.1675 655.5717 90.3164 655.5434 91.5903 656.7303 92.5758 658.5007 98.0913 660.7353 99.381 663.0747 101.7293 665.0453 101.5502 664.232 102.1939 665.1484 103.264 666.8867 103.5067 669.1438 103.3256 668.4564 104.4876 667.3401 107.8981 664.576 108.1543 662.8717 109.7306 659.3245 112.0543 657.0579 112.4584 655.2518 113.129 654.6205 114.5548 653.0935 114.8846 651.6471 114.5898 649.7639 116.0559 649.213 117.3679 646.6071 116.7689 644.6188 117.5237 645.1419 118.2237 643.3046 118.8103 643.3848 119.7786 642.0493 120.013 640.4395 118.3931 641.8238 117.4054 641.9799 116.5143 639.8432 116.9043 638.3552 116.1039 640.2579 114.5219 642.0661 114.5115 641.8881 113.0022 640.2664 113.1159 637.4926 112.6062 637.2928 113.9287 636.5172 114.2133 635.7304 111.1739 636.118 109.6019 634.5861 109.179 632.4652 109.9646 632.0103 109.6065 633.0314 107.925 632.7903 107.2982 631.0788 106.4206 629.2648 106.487 628.9399 107.3851 627.3436 108.2717 626.4765 107.9701 625.7502 106.4224 625.9015 105.1542 628.412 103.6249 627.1285 102.097 626.59 103.1463 625.6345 103.3197 624.1602 102.1382 622.9412 103.7693 621.5022 100.588 620.1196 101.015 618.9935 99.2348 617.5675 99.4037 618.1364 97.1277 617.2753 95.9001 616.2659 96.1395 615.4047 95.2808 616.6211 94.1448 616.0837 93.5726 613.2509 93.8763 613.8256 91.9641 611.2168 91.8122 610.7217 90.7359 609.1275 91.6897 608.3412 90.7712 607.2024 91.0481 606.724 92.228 605.387 92.0967 604.3125 90.1371 602.4502 89.9927 601.4863 90.576 588.0478 101.5777 586.7624 103.3725 580.5072 107.3669 579.3935 107.705 577.279 109.6826 555.665 114.7445 555.5812 113.8431 553.0126 112.668 551.4448 112.881 549.5623 111.8063 547.8878 111.4099 545.8989 110.0954 546.1948 108.9155 547.1605 108.1481 546.9074 105.7106 546.5029 105.214 548.4472 103.0139 548.0367 101.2571 547.2065 101.1089 546.0069 99.5527 543.5545 99.9177 541.4146 98.9835 541.8352 97.6721 541.2912 96.7373 541.5163 95.193 539.8784 93.7646 539.0556 91.6801 540.3026 90.281 538.855 87.1883 537.8396 86.3528 537.1754 84.1177 537.6496 82.481 536.5915 80.4128 533.7237 77.8792 532.4585 77.5399 530.3195 76.1966 530.4608 74.3653 528.6433 72.8825 527.8513 71.3479 527.8073 69.8841 531.0074 68.297 532.4955 68.3662 533.6859 67.8857 534.7961 68.2704 535.7403 64.6736 538.224 65.9049 538.6745 65.3202 540.8262 65.0758 542.4425 62.365 543.7147 62.7916 564.1785 60.5353 564.3187 62.4381 562.8699 62.9506 563.5516 63.8167 565.8022 63.6398 568.1364 62.9646 570.3689 63.9285 571.4535 63.46 573.7215 61.687 574.7653 60.088 576.204 59.1247 578.3912 58.382 579.7138 59.5556 582.3506 59.1047 582.1943 60.4397 586.1073 60.38 589.7093 52.861 595.8169 40.9421 Z"/>
<path d="M 645.1419 118.2237 644.6188 117.5237 646.6071 116.7689 649.213 117.3679 649.7639 116.0559 651.6471 114.5898 653.0935 114.8846 654.6205 114.5548 655.2518 113.129 657.0579 112.4584 659.3245 112.0543 662.8717 109.7306 664.576 108.1543 667.3401 107.8981 668.4564 104.4876 669.1438 103.3256 666.8867 103.5067 665.1484 103.264 664.232 102.1939 665.0453 101.5502 667.5006 99.7115 667.6996 97.3442 668.6505 96.3041 671.1805 95.2159 671.993 93.7529 673.9787 93.955 676.5168 96.3233 679.8135 97.8517 681.3162 97.9634 682.7265 100.0577 684.1206 100.9935 684.8335 102.3549 686.4599 100.8065 687.8468 101.2214 689.4832 100.1428 689.7179 101.426 691.5942 101.7253 691.7961 102.9221 693.2971 103.689 695.2015 103.4259 696.7017 103.9275 701.4425 102.559 703.0004 101.1604 706.0136 101.785 708.0641 100.2186 709.1963 99.906 710.3901 98.6412 709.1513 97.7703 710.5531 96.7094 714.132 96.459 715.191 97.0471 718.3111 96.8023 719.6759 96.1402 722.229 94.2312 729.0597 93.6987 731.1678 93.7928 731.9694 94.3652 732.1837 95.7313 731.3688 97.1347 731.7123 98.194 732.848 98.9207 732.73 101.1084 731.4515 103.7649 728.7631 103.7595 728.0045 104.2678 728.6149 105.3884 729.0269 107.3856 730.3199 107.723 730.651 109.1119 731.9467 109.0706 734.2075 110.5757 734.4159 112.3232 736.3533 113.3672 737.9967 114.6473 739.196 118.0336 740.4566 119.0738 741.1751 121.5732 744.3554 121.9143 744.7756 123.3786 746.6536 123.344 746.434 124.6176 745.1353 124.6342 744.7547 125.5832 745.8158 126.5475 743.5697 127.9681 742.934 128.8466 745.7827 131.1826 746.527 130.8597 749.6596 132.3032 750.2066 133.301 751.5104 133.8576 752.3883 138.2316 753.7575 139.829 753.4354 141.7051 754.8122 141.0189 756.1615 142.6378 759.8951 144.3221 760.6288 146.3092 761.9335 147.4737 760.5691 148.8753 762.1023 149.7735 762.527 151.2064 764.5882 154.7735 764.7021 156.4471 766.0257 155.9297 767.1099 157.1605 768.5569 157.9157 770.3594 157.4265 771.9062 158.3336 773.1297 161.2296 776.5731 161.0457 777.954 162.9883 779.1979 162.9591 779.2384 164.7068 781.7587 164.6056 782.5805 166.3752 780.7637 166.9466 781.9489 168.9715 783.3309 168.195 787.7026 168.5435 789.7281 170.5551 791.0937 171.2483 790.9813 169.4469 792.5487 170.4513 795.0577 170.7532 796.7861 169.926 798.7817 169.5109 799 170.4255 790.2827 176.4987 789.1333 177.4143 780.6358 183.3926 773.37 188.3722 762.4757 196.0249 761.577 197.267 759.5587 197.5146 759.7493 198.2035 758.327 199.1493 749.4733 201.0589 747.5685 201.9989 746.0538 202.2511 742.276 203.6304 739.7074 205.3165 737.8551 205.5347 736.3028 206.4172 735.2342 205.3914 733.2878 204.6013 732.7285 203.0927 730.3016 201.7133 729.6337 200.9748 728.1244 201.2542 727.0123 202.2564 725.9026 202.2913 725.0007 203.1139 722.746 202.4087 721.916 201.5757 722.1855 200.1724 719.7214 199.2898 718.7398 198.5185 722.1482 196.4793 722.1722 195.4076 723.8659 194.5883 725.0729 194.7606 725.3385 193.2387 727.2134 190.064 725.9751 189.0961 725.7087 188.1501 727.0408 187.028 729.671 186.9828 730.7019 186.1789 731.314 184.1279 732.7165 181.8791 732.4658 181.1581 733.8628 180.0857 733.6712 178.9398 734.2738 177.9474 733.7295 177.1394 732.9015 174.1397 730.1406 173.7685 730.4925 171.5393 732.8543 159.4354 731.3296 157.4931 731.1432 156.5012 732.8889 155.617 736.3131 155.3028 736.3422 154.5213 735.1287 153.9586 733.7 154.1547 732.9088 153.3776 730.0744 152.2989 728.3921 151.253 727.7615 149.6278 728.0452 149.0034 726.8429 147.8468 726.5227 146.2167 727.0454 145.1666 724.8584 144.1693 726.9327 141.8434 727.0432 139.2678 725.5153 138.1324 725.2291 137.3967 727.5105 136.5843 729.698 135.0247 731.3684 134.5074 724.5945 133.1332 718.3264 130.6035 708.3597 125.1803 703.7833 124.1556 697.8582 122.1621 696.1511 121.7544 694.2733 122.4363 693.1252 123.4326 692.9869 124.4817 691.8523 125.3373 693.2737 129.0847 694.7107 130.9697 694.4341 131.9785 693.0778 133.0147 692.3525 134.9149 690.7678 135.697 690.1988 136.6152 688.4299 135.7027 688.3339 134.9467 686.5132 133.9833 686.2224 135.2455 684.7257 135.4676 682.8591 134.0658 681.3027 133.3424 676.9034 133.0926 678.7976 136.1022 672.436 139.4907 671.9569 140.5901 670.2862 141.0793 668.8717 140.8406 667.775 142.5297 664.4414 145.0797 662.308 146.3413 665.164 148.7455 665.164 149.4216 663.1702 152.0451 661.168 151.3857 661.0654 149.5137 659.9474 148.731 658.6312 148.8882 657.9677 148.1324 655.6205 147.2166 656.3202 144.9987 655.2258 144.9316 652.4424 142.9297 650.2719 142.6315 650.1278 141.4121 645.2357 140.8398 642.8982 138.3591 639.8609 138.2296 639.8644 137.1195 638.7251 136.3353 638.3018 135.0032 638.6257 133.3121 644.0503 127.8555 645.1419 118.2237 Z"/>
<path d="M 665.0453 101.5502 663.0747 101.7293 660.7353 99.381 658.5007 98.0913 656.7303 92.5758 655.5434 91.5903 655.5717 90.3164 654.8603 88.1675 656.0636 88.0088 656.4987 87.0985 659.8957 87.0782 661.0643 87.6706 664.7265 86.9836 666.243 86.1397 665.537 84.3525 666.2628 82.8783 665.9353 81.3189 665.768 77.9777 666.1792 76.6921 667.5266 76.3385 668.3506 74.6501 669.6446 74.0316 669.9515 72.8636 671.1218 72.3885 670.9518 70.9217 671.3209 69.6243 673.1608 68.8127 675.1663 66.8542 675.2947 65.9877 677.8774 65.4305 679.7605 63.7317 680.8458 61.4612 682.0919 59.9098 682.9585 59.6512 682.2073 57.5432 683.3846 56.3453 682.9926 55.1617 684.9605 54.4777 685.5514 53.517 685.0634 52.6334 686.6641 51.772 687.1324 50.3036 688.158 49.9352 686.6957 48.1439 687.7246 45.8447 687.448 45.4323 690.2818 44.9719 692.2185 45.3437 693.6709 45.2293 697.0523 43.3818 701.4773 42.2019 702.6723 42.3213 703.7879 43.1889 704.3432 45.2483 703.5585 48.7022 703.6997 49.7414 704.9699 51.2512 705.7064 53.6549 705.8336 56.5753 706.6833 59.1035 709.4523 61.4505 712.9045 62.8835 715.1274 62.7972 719.4915 63.0461 722.3535 64.5634 723.3029 65.3892 724.6838 67.4733 727.0585 69.8335 731.5347 72.1227 732.2903 73.4301 732.6292 75.8152 733.3534 77.3996 732.7539 80.4641 733.4205 82.3212 732.9216 83.3897 732.8663 85.3874 735.1125 87.2208 735.6159 88.8174 734.4896 90.3944 735.3877 92.8921 735.3436 93.9584 734.1671 95.935 732.1837 95.7313 731.9694 94.3652 731.1678 93.7928 729.0597 93.6987 722.229 94.2312 719.6759 96.1402 718.3111 96.8023 715.191 97.0471 714.132 96.459 710.5531 96.7094 709.1513 97.7703 710.3901 98.6412 709.1963 99.906 708.0641 100.2186 706.0136 101.785 703.0004 101.1604 701.4425 102.559 696.7017 103.9275 695.2015 103.4259 693.2971 103.689 691.7961 102.9221 691.5942 101.7253 689.7179 101.426 689.4832 100.1428 687.8468 101.2214 686.4599 100.8065 684.8335 102.3549 684.1206 100.9935 682.7265 100.0577 681.3162 97.9634 679.8135 97.8517 676.5168 96.3233 673.9787 93.955 671.993 93.7529 671.1805 95.2159 668.6505 96.3041 667.6996 97.3442 667.5006 99.7115 665.0453 101.5502 Z"/>
<path d="M 140.6785 228.9622 142.0258 230.5887 144.6261 232.4241 146.0294 233.8422 146.9851 237.497 149.5712 241.3319 152.3189 247.4511 152.8636 250.1062 153.9496 252.1563 154.0259 253.7633 151.6216 253.5139 142.4633 253.3672 139.7142 253.4032 114.9301 253.3383 115.089 241.0992 115.0974 233.1531 104.9052 233.006 102.0449 233.1011 92.4583 233.0817 91.4535 232.7046 80.5885 232.6512 80.5537 250.9398 60.712 251.1033 53.8911 250.9768 54.4631 249.4764 50.0189 248.3957 47.9856 249.666 45.0538 249.3026 43.0493 248.3691 42.2454 247.2032 42.1791 244.601 43.0619 243.7059 44.9262 243.1517 46.4556 243.1288 48.659 238.7751 50.5637 231.6825 50.3464 230.5228 49.4898 229.537 47.7945 228.7919 47.0007 228.9469 44.0671 227.1176 42.7065 225.8538 41.9811 224.4078 41.7893 222.953 42.2838 220.9747 43.386 219.1595 44.7514 217.6944 45.5754 217.4988 46.7395 216.2069 49.2579 214.5337 50.5592 212.2793 51.2158 210.5576 53.0022 208.5859 57.8163 204.8419 59.5704 204.2721 60.9315 203.3999 63.7015 202.8698 64.5115 203.2361 67.0531 203.4482 68.1484 203.1248 75.0983 205.123 78.2423 206.3726 81.6741 207.2843 85.9048 210.2141 88.7579 211.7698 90.6239 212.2196 92.0941 212.0131 94.366 212.5795 98.8124 214.2705 101.1566 214.8439 104.567 216.9245 106.4954 219.1424 106.5076 219.9233 108.2354 220.9891 110.6293 223.3482 112.3377 224.4514 114.1161 224.7314 116.4627 224.4277 118.2213 223.7383 119.775 222.3576 121.1412 221.787 125.8922 220.8893 127.0246 220.3977 130.1364 220.5898 133.6064 221.9499 135.0938 223.6462 137.1218 225.2573 137.9977 226.4755 140.6785 228.9622 Z"/>
<path d="M 1 274.2741 1.6164 272.6079 4.0002 271.1928 5.2573 271.0868 9.7213 272.0115 10.5794 272.4155 11.8505 274.743 11.9737 276.8412 11.0983 278.6628 10.0025 279.9515 4.3553 279.9049 2.1324 277.1185 1 274.2741 Z M 198.0033 265.2557 181.302 265.6712 181.6982 262.4572 173.5818 261.9055 164.6261 261.0367 158.5032 260.9246 159.0016 263.5413 159.75 264.5822 161.1984 268.8385 161.6565 271.6011 162.2783 273.6495 162.4775 275.7945 161.7272 278.6941 160.3135 279.9971 143.1687 279.7057 114.2283 279.5661 108.7119 279.4636 99.3332 279.4745 84.9257 279.4002 65.1758 279.4689 43.7539 279.2037 29.3569 278.9261 19.9072 279.77 17.1555 279.7915 19.1309 275.1772 19.502 273.2122 20.7833 270.875 21.3187 268.131 22.5584 266.5169 26.102 265.7006 27.7376 266.6308 30.0231 269.8164 32.6605 272.3493 34.0258 272.8498 37.1211 272.3681 38.5036 271.2761 39.6689 268.9863 40.1956 266.1122 41.3393 264.7384 44.2506 262.1773 43.2346 261.5944 43.1687 259.8177 40.2919 257.2934 39.8911 256.662 40.1848 254.4494 41.8461 252.8036 43.131 252.358 47.73 253.1824 48.6631 251.713 47.9856 249.666 50.0189 248.3957 54.4631 249.4764 53.8911 250.9768 60.712 251.1033 80.5537 250.9398 80.5885 232.6512 91.4535 232.7046 92.4583 233.0817 102.0449 233.1011 104.9052 233.006 115.0974 233.1531 115.089 241.0992 114.9301 253.3383 139.7142 253.4032 142.4633 253.3672 151.6216 253.5139 154.0259 253.7633 153.9496 252.1563 152.8636 250.1062 152.3189 247.4511 149.5712 241.3319 146.9851 237.497 146.0294 233.8422 144.6261 232.4241 142.0258 230.5887 140.6785 228.9622 143.9479 227.0608 142.1056 224.1529 142.2715 222.2797 143.2055 221.1401 142.5868 219.5968 141.6469 218.4718 141.8652 217.5139 143.1431 216.9816 143.2348 214.6389 143.7708 213.3298 145.5043 212.7552 146.9488 213.7309 149.097 213.0518 148.7588 211.9901 149.8278 211.3188 151.9357 211.0944 154.3273 210.2339 155.2375 209.233 155.3092 208.2221 161.4839 208.6637 168.5113 219.9523 174.8696 227.0469 178.8169 231.2564 180.8014 232.246 190.5854 229.7174 193.8915 226.8369 201.6209 230.5952 200.346 239.8059 200.136 245.4537 200.1463 252.7879 198.0033 265.2557 Z"/>
<path d="M 193.8915 226.8369 190.5854 229.7174 180.8014 232.246 178.8169 231.2564 174.8696 227.0469 168.5113 219.9523 161.4839 208.6637 155.3092 208.2221 155.2375 209.233 154.3273 210.2339 151.9357 211.0944 149.8278 211.3188 148.7588 211.9901 149.097 213.0518 146.9488 213.7309 145.5043 212.7552 143.7708 213.3298 143.2348 214.6389 143.1431 216.9816 141.8652 217.5139 141.6469 218.4718 142.5868 219.5968 143.2055 221.1401 142.2715 222.2797 142.1056 224.1529 143.9479 227.0608 140.6785 228.9622 137.9977 226.4755 137.1218 225.2573 135.0938 223.6462 133.6064 221.9499 130.1364 220.5898 127.0246 220.3977 125.8922 220.8893 121.1412 221.787 119.775 222.3576 118.2213 223.7383 116.4627 224.4277 114.1161 224.7314 112.3377 224.4514 110.6293 223.3482 108.2354 220.9891 106.5076 219.9233 106.4954 219.1424 111.6776 220.176 115.2526 219.9789 117.3877 219.3228 118.7446 217.836 119.3852 215.3363 121.3423 211.0838 120.4082 209.507 118.885 205.6483 116.1905 203.7275 114.9515 201.6178 112.6877 199.7238 111.7891 197.1931 112.1419 195.7864 114.7686 191.3644 115.2419 188.7551 116.1483 185.8113 118.1895 183.9072 122.5868 182.3159 124.5933 182.8643 127.1576 184.737 129.5387 183.6111 131.1882 181.8546 133.1634 180.6391 136.6025 179.3454 139.3539 178.9575 142.387 178.9366 145.1556 178.623 151.6071 177.4319 157.275 177.3062 159.0396 175.6121 159.487 173.9797 159.223 172.708 158.3396 171.3964 156.6744 170.7582 155.0556 168.7713 151.8942 166.596 151.1927 165.247 150.9764 163.4819 149.4135 160.3937 149.0731 157.9949 150.0511 155.8915 151.8041 154.2808 152.7881 152.617 158.3174 149.8491 160.7449 147.5804 161.5755 145.9683 162.503 143.2436 164.2815 142.6464 166.1406 143.065 168.3288 144.0725 170.2168 145.7116 171.5755 145.6326 173.0655 143.0409 175.6742 142.0522 176.0197 141.0847 175.3512 138.3235 172.5925 135.7073 172.0807 134.5195 172.3567 133.2973 175.4731 130.0625 176.7023 129.4041 179.1314 129.9342 180.441 131.2161 180.9233 132.2761 182.0886 133.0242 183.4352 134.7315 187.5093 134.9196 188.8571 134.5252 191.156 133.1823 193.2707 132.8734 196.1702 132.9707 199.037 131.9305 200.8725 132.7073 200.8673 134.7682 199.3161 136.9283 199.5552 138.9932 200.1806 139.7071 203.5296 140.0673 206.2538 139.4992 208.0625 137.8817 209.1031 136.3586 208.6422 133.4111 205.7067 131.5177 204.9435 129.9161 205.9653 128.1873 207.3582 126.9041 207.7242 124.8203 208.5567 124.3816 210.1987 124.8975 211.0834 127.8508 212.4478 129.3146 217.3647 131.6911 218.8198 131.0815 222.226 128.6479 223.8436 127.8746 225.9095 127.5841 228.6456 127.8329 231.2213 128.7057 232.6931 129.9846 234.6748 131.1574 237.4629 131.8025 239.0684 132.5625 236.9199 140.8264 238.6017 141.2505 239.0743 141.91 239.6577 144.4087 242.1047 144.5079 240.4483 146.9483 236.9896 148.9696 231.9495 149.3971 229.5005 150.8516 229.042 153.5756 227.5148 156.0427 226.7254 156.519 224.8464 156.4371 221.2385 157.0752 219.0004 158.7499 218.3929 159.7698 218.4219 161.0143 220.3772 163.912 221.9501 164.5136 224.2051 164.7793 226.5793 164.7031 229.1985 165.0344 230.9799 166.1737 231.4892 167.0622 218.3882 175.8246 208.5636 178.4327 190.6126 187.5805 185.4903 190.1499 184.5456 191.0793 183.0785 191.532 181.5705 193.1507 182.951 194.4454 184.7139 195.3045 184.7762 193.5932 187.3611 193.5219 186.6113 194.417 186.2416 196.2227 187.2844 196.2499 187.6433 197.3225 187.151 199.9215 186.4878 201.4595 188.0582 202.5884 189.8847 204.5196 189.5541 206.2037 190.6806 206.5445 192.359 205.0383 192.4499 206.7603 194.7419 208.1559 195.9576 208.2496 196.8761 210.1179 199.4281 211.3496 196.2484 224.7839 193.8915 226.8369 Z"/>
<path d="M 198.0033 265.2557 200.1463 252.7879 200.136 245.4537 200.346 239.8059 201.6209 230.5952 193.8915 226.8369 196.2484 224.7839 199.4281 211.3496 202.6324 211.5749 205.5467 212.8229 216.1169 215.9699 217.1436 215.16 219.9399 213.7004 231.5388 212.9874 233.3921 211.7475 233.0467 210.5684 234.015 210.3011 236.0349 211.0289 236.9904 213.631 239.0516 215.8322 240.0391 215.194 241.0214 215.6868 241.5189 217.6894 241.4136 218.9594 242.8078 219.6945 244.0877 219.2029 244.9824 221.3312 244.597 222.7893 258.4708 222.3498 265.283 220.6355 273.3399 219.3125 287.0943 221.1098 305.03 227.0829 311.6292 239.3675 309.4442 239.3809 306.9795 240.0833 304.9348 242.3008 303.3238 243.447 301.9011 247.0859 300.6265 248.6007 298.1198 252.769 296.9612 255.7812 296.7574 257.8503 295.7064 264.0088 281.2476 264.2685 263.4644 264.6639 244.6197 264.7704 235.5998 264.7766 221.0416 264.9076 212.9063 265.0679 198.0033 265.2557 Z"/>
<path d="M 199.4281 211.3496 196.8761 210.1179 195.9576 208.2496 194.7419 208.1559 192.4499 206.7603 192.359 205.0383 190.6806 206.5445 189.5541 206.2037 189.8847 204.5196 188.0582 202.5884 186.4878 201.4595 187.151 199.9215 187.6433 197.3225 187.2844 196.2499 186.2416 196.2227 186.6113 194.417 187.3611 193.5219 184.7762 193.5932 184.7139 195.3045 182.951 194.4454 181.5705 193.1507 183.0785 191.532 184.5456 191.0793 185.4903 190.1499 190.6126 187.5805 208.5636 178.4327 218.3882 175.8246 231.4892 167.0622 233.1166 169.711 232.3832 170.7613 233.6733 171.47 234.1746 172.8784 233.295 173.6851 232.9048 175.6866 233.6967 176.4653 233.2575 178.0401 233.9874 181.0076 233.9296 182.2544 236.2579 184.0897 236.3354 185.0523 238.1713 184.7577 239.7996 185.816 245.7755 186.5159 248.1571 187.0123 248.9092 186.8245 252.9083 183.5245 259.0766 183.7405 260.3879 183.2663 259.8986 181.1795 259.8842 178.5627 258.144 177.6195 256.7062 175.9457 257.8198 175.803 258.9667 177.4281 260.0408 176.4394 265.6702 168.9831 266.8473 168.029 270.223 165.9593 272.1349 164.1207 276.2408 160.6877 278.4687 161.4182 281.0006 160.301 282.128 159.3918 286.1656 158.1179 287.5346 156.9956 290.0159 156.1336 284.869 152.4458 289.395 149.4034 308.7588 157.3901 308.5608 161.8837 310.2105 163.4538 310.7224 165.2605 311.927 166.2251 313.4377 168.0775 315.2648 168.7658 313.4097 169.4842 312.9669 170.3788 310.7326 168.7483 310.1876 167.4938 308.6134 167.4622 307.9159 168.5801 306.1329 168.4067 305.6055 169.1956 306.3506 170.0151 311.5758 185.4682 324.6893 188.9019 329.7511 200.4455 333.9241 209.1752 332.914 209.4162 332.1246 210.9441 329.3425 209.6322 329.1865 210.8447 326.8523 210.9873 326.2312 209.5467 323.9083 207.0891 321.6648 207.4249 319.0813 208.5021 317.891 208.5001 314.8255 207.5777 310.9395 207.7006 310.3672 208.6639 311.357 209.4867 311.0796 211.6143 305.03 227.0829 287.0943 221.1098 273.3399 219.3125 265.283 220.6355 258.4708 222.3498 244.597 222.7893 244.9824 221.3312 244.0877 219.2029 242.8078 219.6945 241.4136 218.9594 241.5189 217.6894 241.0214 215.6868 240.0391 215.194 239.0516 215.8322 236.9904 213.631 236.0349 211.0289 234.015 210.3011 233.0467 210.5684 233.3921 211.7475 231.5388 212.9874 219.9399 213.7004 217.1436 215.16 216.1169 215.9699 205.5467 212.8229 202.6324 211.5749 199.4281 211.3496 Z"/>
<path d="M 231.4892 167.0622 230.9799 166.1737 229.1985 165.0344 226.5793 164.7031 224.2051 164.7793 221.9501 164.5136 220.3772 163.912 218.4219 161.0143 218.3929 159.7698 219.0004 158.7499 221.2385 157.0752 224.8464 156.4371 226.7254 156.519 227.5148 156.0427 229.042 153.5756 229.5005 150.8516 231.9495 149.3971 236.9896 148.9696 240.4483 146.9483 242.1047 144.5079 239.6577 144.4087 239.0743 141.91 238.6017 141.2505 236.9199 140.8264 239.0684 132.5625 241.4976 133.8793 243.7642 135.5283 247.7783 137.7054 249.2497 138.1244 253.5717 138.4987 254.5761 139.1807 256.0675 141.2608 256.7774 143.5943 257.3651 144.3493 259.2119 144.7089 261.3046 144.2236 263.5501 142.6922 264.9156 139.9536 266.3199 135.6358 266.0003 133.3877 266.6475 132.1977 269.5642 130.3565 273.3188 129.0663 279.2768 128.4953 281.1503 127.4366 282.7775 125.6871 285.4398 123.4623 286.4034 122.9546 290.2014 121.9096 292.3253 122.9099 294.2141 126.9295 296.818 130.7076 299.1253 132.9503 300.39 133.0564 304.4071 130.7386 306.5442 130.9628 308.0382 131.5669 308.2002 132.6922 306.4794 136.0889 306.3603 137.5632 307.0441 138.3758 305.9089 139.0829 304.6722 143.6046 310.5031 158.1131 308.7588 157.3901 289.395 149.4034 284.869 152.4458 290.0159 156.1336 287.5346 156.9956 286.1656 158.1179 282.128 159.3918 281.0006 160.301 278.4687 161.4182 276.2408 160.6877 272.1349 164.1207 270.223 165.9593 266.8473 168.029 265.6702 168.9831 260.0408 176.4394 258.9667 177.4281 257.8198 175.803 256.7062 175.9457 258.144 177.6195 259.8842 178.5627 259.8986 181.1795 260.3879 183.2663 259.0766 183.7405 252.9083 183.5245 248.9092 186.8245 248.1571 187.0123 245.7755 186.5159 239.7996 185.816 238.1713 184.7577 236.3354 185.0523 236.2579 184.0897 233.9296 182.2544 233.9874 181.0076 233.2575 178.0401 233.6967 176.4653 232.9048 175.6866 233.295 173.6851 234.1746 172.8784 233.6733 171.47 232.3832 170.7613 233.1166 169.711 231.4892 167.0622 Z"/>
<path d="M 333.9241 209.1752 346.2475 218.5747 348.8984 218.0488 350.4395 216.8476 352.8747 216.1083 355.6415 218.9853 363.9051 220.6299 358.3185 234.0037 355.9793 235.3024 354.6789 233.8669 353.7621 234.6765 354.4879 236.1315 353.4286 237.2045 352.6684 236.354 351.0945 236.8705 351.1931 237.7403 349.3555 238.4718 348.1631 238.2812 348.1729 240.4119 333.231 250.6164 333.7821 247.3493 325.3193 246.1971 314.5992 244.9225 311.6292 239.3675 305.03 227.0829 311.0796 211.6143 311.357 209.4867 310.3672 208.6639 310.9395 207.7006 314.8255 207.5777 317.891 208.5001 319.0813 208.5021 321.6648 207.4249 323.9083 207.0891 326.2312 209.5467 326.8523 210.9873 329.1865 210.8447 329.3425 209.6322 332.1246 210.9441 332.914 209.4162 333.9241 209.1752 Z"/>
<path d="M 308.7588 157.3901 310.5031 158.1131 304.6722 143.6046 305.9089 139.0829 307.0441 138.3758 308.856 138.3494 312.3521 136.7331 313.1268 135.5691 312.8271 131.8625 314.0543 130.0788 316.3304 129.9759 318.9336 130.5327 321.58 129.8683 322.5968 129.1766 322.309 127.7684 321.1602 126.5346 320.707 125.1595 320.7139 118.7576 321.0646 117.6439 321.952 117.1627 325.1924 117.0153 327.8757 116.6389 330.276 114.8838 330.4073 112.8244 328.2768 112.0093 326.9615 110.8207 327.0479 109.4451 327.986 108.6392 329.3016 108.3518 331.1888 108.8788 333.4705 110.7936 334.5087 110.1088 335.1161 108.7065 336.4516 108.049 339.6368 108.378 340.9631 108.1237 342.1028 106.2941 341.6164 105.5869 337.3992 104.7973 336.2952 103.9737 336.2074 101.9508 337.2471 101.0318 339.3219 101.2362 342.3749 103.5232 344.7792 104.5301 347.1819 106.9757 347.4525 108.139 346.5256 111.1946 346.8634 114.016 347.7149 115.7821 351.3285 117.6289 352.5866 118.7821 357.0391 120.6619 358.6915 120.7405 360.2962 120.2473 363.0562 120.1102 364.8859 120.4707 367.4865 121.734 369.0499 124.416 370.6747 126.0248 372.2269 125.4558 372.3782 122.8756 373.5447 122.2426 375.9288 121.8362 378.3432 134.8736 375.0388 140.9106 359.9406 142.9696 349.5873 160.373 346.9276 164.5853 347.6768 165.5209 348.9175 164.6577 350.5371 164.2348 350.8925 165.426 351.7488 166.0698 353.5992 166.1224 355.2781 167.5315 357.4992 167.8998 358.416 167.3041 360.8054 168.162 361.0606 167.6834 363.8439 167.3629 365.1482 169.1009 369.094 173.5973 369.3586 175.4926 370.3887 176.6563 369.4903 177.3198 368.7406 178.8574 370.8231 179.699 387.0697 180.7121 386.9169 177.3294 387.5308 177.1036 388.8327 169.8756 392.7557 167.1945 394.618 166.6324 394.7888 165.5445 397.093 163.0532 396.442 161.6483 397.4256 161.023 399.2958 160.6415 399.2926 159.8352 400.9576 158.9343 402.805 158.7455 403.5326 158.1563 409.3535 149.9792 410.9844 150.4226 413.0482 151.6826 413.8245 153.7265 415.0915 153.99 417.0693 153.2935 418.6316 154.0637 417.6849 159.704 419.5082 159.2382 420.599 159.8401 421.1427 161.4329 419.3633 161.2405 418.5839 162.4516 417.2745 162.0747 416.602 163.1299 418.885 163.7322 417.4951 164.6184 417.3644 167.1534 415.3533 168.9972 415.9046 170.1544 417.2985 169.8275 417.9181 170.6928 420.871 171.5673 423.2606 170.9182 422.9303 168.7425 423.792 167.8375 425.6028 167.9881 427.9323 169.2311 429.0632 170.7959 429.1629 172.7793 430.1 174.4221 431.0543 175.288 431.8391 178.0504 429.4684 177.8725 429.0928 176.6457 428.006 176.2918 425.4581 178.5008 425.2683 179.2638 421.473 178.6621 419.5333 177.5955 417.4363 177.8598 416.677 178.6018 414.196 177.4098 413.124 179.7592 412.0186 179.9619 410.938 181.086 411.9353 182.7566 412.2484 185.8965 410.4327 187.1723 408.8291 189.0277 408.5056 189.9864 407.5864 195.2872 409.1632 196.6972 409.5107 200.744 408.7244 207.8562 402.6961 209.1789 399.4419 209.4244 396.5775 209.8914 390.8214 211.1498 385.6494 211.4403 379.0669 210.627 376.6383 210.5238 369.8948 209.4582 368.0241 221.4495 363.9051 220.6299 355.6415 218.9853 352.8747 216.1083 350.4395 216.8476 348.8984 218.0488 346.2475 218.5747 333.9241 209.1752 329.7511 200.4455 324.6893 188.9019 311.5758 185.4682 306.3506 170.0151 305.6055 169.1956 306.1329 168.4067 307.9159 168.5801 308.6134 167.4622 310.1876 167.4938 310.7326 168.7483 312.9669 170.3788 313.4097 169.4842 315.2648 168.7658 313.4377 168.0775 311.927 166.2251 310.7224 165.2605 310.2105 163.4538 308.5608 161.8837 308.7588 157.3901 Z"/>
<path d="M 363.9051 220.6299 368.0241 221.4495 369.8948 209.4582 376.6383 210.5238 379.0669 210.627 385.6494 211.4403 390.8214 211.1498 396.5775 209.8914 399.4419 209.4244 402.6961 209.1789 408.7244 207.8562 409.5107 200.744 409.1632 196.6972 407.5864 195.2872 408.5056 189.9864 408.8291 189.0277 410.4327 187.1723 412.2484 185.8965 411.9353 182.7566 410.938 181.086 412.0186 179.9619 413.124 179.7592 414.196 177.4098 416.677 178.6018 417.4363 177.8598 419.5333 177.5955 419.1956 180.36 419.4304 181.577 423.7812 184.3085 430.4277 188.7932 435.5144 194.9424 439.5503 200.8148 439.6778 202.039 438.3938 202.1589 438.1127 203.6829 440.2039 203.4956 441.7422 203.7633 443.7494 206.8031 440.8646 209.3418 435.2407 211.8161 430.1971 213.6025 425.4903 215.5383 425.9105 219.9702 427.9159 226.2498 434.41 231.8921 433.3525 233.5697 431.0026 238.2343 427.5225 241.004 424.4153 241.564 421.924 242.7568 419.8446 240.8515 417.6341 240.5416 418.4091 242.0612 420.4581 244.0847 419.7727 245.7007 418.1986 246.2112 418.9819 250.4941 420.3844 250.4857 421.0804 251.1865 423.8348 250.761 424.2725 252.5516 424.9706 252.7383 425.885 254.8295 428.2895 255.1177 430.3724 254.91 431.3216 255.7394 428.6188 259.6128 434.9676 267.198 428.1386 267.598 409.7689 267.2435 397.1705 266.8261 393.4061 266.8354 372.3635 265.9264 368.1316 265.6229 358.4554 265.1866 345.055 264.3938 340.9602 264.0354 332.6422 263.8014 322.5242 263.6483 316.5969 265.6267 313.9047 263.6415 298.7593 264.0147 295.7064 264.0088 296.7574 257.8503 296.9612 255.7812 298.1198 252.769 300.6265 248.6007 301.9011 247.0859 303.3238 243.447 304.9348 242.3008 306.9795 240.0833 309.4442 239.3809 311.6292 239.3675 314.5992 244.9225 325.3193 246.1971 333.7821 247.3493 333.231 250.6164 348.1729 240.4119 348.1631 238.2812 349.3555 238.4718 351.1931 237.7403 351.0945 236.8705 352.6684 236.354 353.4286 237.2045 354.4879 236.1315 353.7621 234.6765 354.6789 233.8669 355.9793 235.3024 358.3185 234.0037 363.9051 220.6299 Z"/>
<path d="M 409.3535 149.9792 403.5326 158.1563 402.805 158.7455 400.9576 158.9343 399.2926 159.8352 399.2958 160.6415 397.4256 161.023 396.442 161.6483 397.093 163.0532 394.7888 165.5445 394.618 166.6324 392.7557 167.1945 388.8327 169.8756 387.5308 177.1036 386.9169 177.3294 387.0697 180.7121 370.8231 179.699 368.7406 178.8574 369.4903 177.3198 370.3887 176.6563 369.3586 175.4926 369.094 173.5973 365.1482 169.1009 363.8439 167.3629 361.0606 167.6834 360.8054 168.162 358.416 167.3041 357.4992 167.8998 355.2781 167.5315 353.5992 166.1224 351.7488 166.0698 350.8925 165.426 350.5371 164.2348 348.9175 164.6577 347.6768 165.5209 346.9276 164.5853 349.5873 160.373 359.9406 142.9696 375.0388 140.9106 378.3432 134.8736 375.9288 121.8362 381.7875 121.1028 383.8555 119.1423 384.7252 114.6803 385.7907 112.3457 385.7572 110.105 389.0558 111.7299 389.863 112.5087 391.1395 112.4727 392.4661 112.3234 394.216 111.3111 395.1001 111.4628 396.4664 112.7803 395.0315 115.6479 388.947 117.3265 384.9721 119.626 382.7047 122.0935 383.5577 122.6097 385.5339 122.6854 386.2341 125.0063 385.7711 127.8438 386.9197 128.1065 388.4317 127.2195 391.051 127.5485 392.099 130.0396 393.6436 130.3518 393.9279 132.2592 392.8009 134.5062 394.9489 136.6614 396.755 137.1278 398.3261 138.3363 399.6859 138.4397 402.9781 140.7044 403.3407 141.6105 402.8857 142.4943 403.0525 143.9837 404.3529 145.5695 406.8328 146.204 407.9373 147.4967 409.1089 148.1516 408.6286 149.6803 409.3535 149.9792 Z"/>
<path d="M 554.5152 232.7494 553.1341 234.1929 553.8131 236.2727 551.9445 237.9226 552.5859 239.8053 551.6246 240.6172 551.5767 242.3271 550.6788 244.0685 552.0855 244.8323 550.2193 245.4493 548.4427 246.7312 549.5061 247.6147 548.9649 248.5638 548.9955 250.1434 550.2997 250.8044 550.858 252.2883 551.8665 252.4604 551.8335 254.6728 552.1691 257.6089 553.4465 261.0768 555.4493 263.8044 557.2322 265.5881 560.5835 267.756 561.7424 269.1312 561.8751 269.9989 557.2305 270.0349 543.0615 269.6498 533.9526 269.5195 529.0048 269.5506 513.7891 269.0181 498.6136 268.6842 487.4768 267.927 481.6531 267.3679 469.3097 266.7528 462.3349 266.5293 451.7159 266.3378 449.2444 266.5881 434.9676 267.198 428.6188 259.6128 431.3216 255.7394 430.3724 254.91 428.2895 255.1177 425.885 254.8295 424.9706 252.7383 424.2725 252.5516 423.8348 250.761 421.0804 251.1865 420.3844 250.4857 418.9819 250.4941 418.1986 246.2112 419.7727 245.7007 420.4581 244.0847 418.4091 242.0612 417.6341 240.5416 419.8446 240.8515 421.924 242.7568 424.4153 241.564 427.5225 241.004 431.0026 238.2343 433.3525 233.5697 434.41 231.8921 427.9159 226.2498 425.9105 219.9702 425.4903 215.5383 430.1971 213.6025 435.2407 211.8161 440.8646 209.3418 443.7494 206.8031 441.7422 203.7633 440.2039 203.4956 438.1127 203.6829 438.3938 202.1589 439.6778 202.039 439.5503 200.8148 435.5144 194.9424 430.4277 188.7932 423.7812 184.3085 419.4304 181.577 419.1956 180.36 419.5333 177.5955 421.473 178.6621 425.2683 179.2638 425.4581 178.5008 428.006 176.2918 429.0928 176.6457 429.4684 177.8725 431.8391 178.0504 436.1346 177.1251 438.6983 177.1555 439.0328 177.741 440.7462 178.0596 444.9617 177.6438 447.211 179.671 448.0645 179.6059 450.5511 181.0826 452.1976 183.1358 454.876 182.8281 456.8294 180.6414 458.1212 180.1037 459.1587 180.4149 460.9925 179.3527 462.0241 179.1865 462.9779 178.2179 465.757 179.973 467.2565 179.3487 471.5253 183.0375 472.6675 183.7043 472.1134 184.8932 470.0701 185.1233 468.2894 186.5584 467.0086 186.6111 467.0003 188.6324 466.0919 189.8389 465.5238 191.4468 464.3466 193.4735 463.4388 194.3864 465.3007 195.0144 469.01 197.3659 474.803 200.0025 475.1528 206.349 478.5213 209.8591 483.858 215.1593 485.5602 216.2933 489.5326 215.766 491.1537 214.817 490.5292 217.8833 490.6639 222.0914 495.0764 226.2141 503.4669 229.3231 504.8966 231.507 509.0351 230.58 512.3014 228.8925 514.4483 229.0672 520.6328 237.9666 522.1951 239.6156 523.8145 239.4166 525.0496 241.0436 541.9834 232.6453 545.593 231.9848 546.9594 231.0359 548.154 231.3317 547.0847 232.7855 548.0437 233.3875 549.4294 233.4268 551.6711 232.7224 552.8106 233.1447 554.5152 232.7494 Z"/>
<path d="M 431.8391 178.0504 431.0543 175.288 430.1 174.4221 429.1629 172.7793 429.0632 170.7959 427.9323 169.2311 425.6028 167.9881 423.792 167.8375 422.9303 168.7425 423.2606 170.9182 420.871 171.5673 417.9181 170.6928 417.2985 169.8275 415.9046 170.1544 415.3533 168.9972 417.3644 167.1534 417.4951 164.6184 418.885 163.7322 416.602 163.1299 417.2745 162.0747 418.5839 162.4516 419.3633 161.2405 421.1427 161.4329 420.599 159.8401 419.5082 159.2382 417.6849 159.704 418.6316 154.0637 417.0693 153.2935 415.0915 153.99 413.8245 153.7265 413.0482 151.6826 410.9844 150.4226 409.3535 149.9792 408.6286 149.6803 409.1089 148.1516 407.9373 147.4967 406.8328 146.204 404.3529 145.5695 403.0525 143.9837 402.8857 142.4943 403.3407 141.6105 405.6445 141.8594 407.4822 141.6757 408.226 140.9032 411.2498 140.243 413.2614 139.2692 414.9989 137.583 416.7234 136.6513 416.3753 135.7397 419.027 134.8774 419.9296 134.0644 419.3039 131.5121 420.3278 130.5692 423.1462 129.3528 423.7924 128.0775 425.1538 127.3542 425.7751 126.2383 424.6967 125.4464 429.4301 122.7835 427.0313 120.4709 431.5262 111.6716 433.3484 111.0306 434.7996 111.0707 435.5946 110.5107 435.7648 109.3396 430.4063 111.2605 426.6285 112.4564 422.286 114.0274 421.2495 113.9325 420.0496 111.9873 420.5484 111.2631 422.1035 110.9509 423.2756 111.3863 423.9212 108.4085 422.9603 107.6814 420.2432 107.6004 419.5477 106.8649 417.9726 106.9537 418.6352 105.4673 419.7582 105.0271 419.4576 103.4853 420.8145 102.8874 423.0476 102.7375 424.5432 102.219 426.9651 102.0009 427.6695 105.2041 426.4773 107.1245 426.7512 108.0366 429.3689 108.9473 431.8141 107.695 435.8874 108.5561 436.2678 106.2807 445.0053 108.9953 456.3824 112.3864 470.1064 117.8768 469.3031 118.94 467.5029 119.6639 467.8264 120.6859 467.0201 122.2335 466.1891 121.9964 463.783 122.792 463.0136 123.7608 464.7378 132.5718 464.5879 133.8491 461.7359 133.1226 459.2192 136.1548 458.0782 135.3438 456.4334 136.9613 454.9022 137.1757 451.6923 138.7627 448.5026 140.8118 447.8451 142.335 448.4238 143.5078 447.2499 144.1398 445.476 144.2284 445.3142 144.9205 443.4278 144.8063 443.7303 147.3395 442.0743 146.6374 441.3995 147.2426 441.5923 149.2111 440.2291 149.0957 438.8652 150.1343 439.4437 151.6027 441.5278 153.3949 442.0026 154.6193 441.5193 156.1079 443.028 156.7848 443.7245 157.7741 445.0166 158.4905 448.1084 158.4533 453.7698 160.6504 477.6081 160.6117 476.6108 169.668 479.3989 169.0328 480.3166 169.5027 480.5457 170.8894 491.4698 171.0488 496.7988 169.3878 495.7745 171.4271 495.6866 176.1061 495.455 177.8657 496.4325 182.0978 502.1749 185.9489 509.8659 189.1607 511.619 195.4981 509.7253 196.8833 510.51 200.556 510.0877 201.9722 500.7859 208.6344 491.1537 214.817 489.5326 215.766 485.5602 216.2933 483.858 215.1593 478.5213 209.8591 475.1528 206.349 474.803 200.0025 469.01 197.3659 465.3007 195.0144 463.4388 194.3864 464.3466 193.4735 465.5238 191.4468 466.0919 189.8389 467.0003 188.6324 467.0086 186.6111 468.2894 186.5584 470.0701 185.1233 472.1134 184.8932 472.6675 183.7043 471.5253 183.0375 467.2565 179.3487 465.757 179.973 462.9779 178.2179 462.0241 179.1865 460.9925 179.3527 459.1587 180.4149 458.1212 180.1037 456.8294 180.6414 454.876 182.8281 452.1976 183.1358 450.5511 181.0826 448.0645 179.6059 447.211 179.671 444.9617 177.6438 440.7462 178.0596 439.0328 177.741 438.6983 177.1555 436.1346 177.1251 431.8391 178.0504 Z"/>
<path d="M 555.3905 211.0863 554.8857 211.7985 555.553 214.0649 555.2175 215.4403 556.3248 216.3331 555.7964 217.701 554.0877 217.8435 551.6969 219.8843 552.3985 220.9654 552.4569 222.7961 553.9274 223.0167 553.239 224.3627 552.1664 224.0454 550.9078 224.492 552.8352 226.3133 552.4534 227.1284 550.5844 227.9177 549.0752 228.1537 549.5491 230.0368 548.154 231.3317 546.9594 231.0359 545.593 231.9848 541.9834 232.6453 525.0496 241.0436 523.8145 239.4166 522.1951 239.6156 520.6328 237.9666 514.4483 229.0672 512.3014 228.8925 509.0351 230.58 504.8966 231.507 503.4669 229.3231 495.0764 226.2141 490.6639 222.0914 490.5292 217.8833 491.1537 214.817 500.7859 208.6344 510.0877 201.9722 510.51 200.556 509.7253 196.8833 511.619 195.4981 509.8659 189.1607 502.1749 185.9489 496.4325 182.0978 495.455 177.8657 495.6866 176.1061 495.7745 171.4271 496.7988 169.3878 491.4698 171.0488 480.5457 170.8894 480.3166 169.5027 479.3989 169.0328 476.6108 169.668 477.6081 160.6117 478.1487 155.6031 480.7923 155.4639 489.3596 154.4163 500.9403 152.8917 502.4404 151.5617 507.5503 152.0011 508.7125 152.2456 507.6752 153.5468 509.9119 154.1349 511.8131 153.6265 512.5706 155.3109 513.7526 154.682 514.327 155.9066 512.4487 156.6923 514.4796 158.3407 512.9185 159.5952 514.4609 160.0285 514.5543 159.0578 515.8341 158.3376 517.3328 158.7893 516.7291 160.2817 518.1169 160.5472 517.24 161.9864 517.6272 162.7927 519.326 163.8006 520.416 163.5259 520.8185 164.6346 536.0653 175.0142 538.1964 175.1811 538.8449 175.9139 536.8419 181.2981 532.945 192.4491 538.8904 197.6859 544.0758 201.6161 554.1941 209.8022 555.3905 211.0863 Z"/>
<path d="M 577.2989 137.2658 576.794 138.5965 574.8447 138.6871 574.5011 139.7594 573.1123 141.022 573.8206 142.2852 575.3234 141.2089 577.6656 141.9136 577.9737 142.7339 575.5011 144.4326 574.9089 145.6137 577.1049 146.3772 576.3386 147.457 577.2213 148.2118 576.6842 149.3064 575.5827 149.6841 576.1101 150.8037 575.3185 151.3799 576.0984 153.9038 575.401 155.4989 575.6451 157.4118 573.9283 157.9924 572.4068 159.438 573.921 163.3087 576.2465 167.4581 570.8204 167.6042 567.6955 168.3715 564.7349 172.1126 564.3038 173.2118 564.3668 175.884 565.1386 176.7767 565.8672 178.9717 567.9358 182.1944 568.9789 183.0822 567.9538 185.3083 567.9427 186.491 572.1804 189.4399 571.5524 192.0598 570.4142 192.5885 571.4897 194.0825 570.1395 195.2226 568.4318 195.3892 567.855 194.9025 565.1049 196.9527 564.6531 197.5652 563.035 197.5589 562.8685 201.5402 561.1719 200.9694 560.4332 202.9976 559.1038 201.8471 558.6107 203.0892 557.737 203.5276 558.5533 205.3938 558.0264 205.9417 556.2393 206.2727 556.5646 207.3791 557.5402 208.1977 555.8382 208.8587 555.3905 211.0863 554.1941 209.8022 544.0758 201.6161 538.8904 197.6859 532.945 192.4491 536.8419 181.2981 538.8449 175.9139 546.431 177.3065 548.4149 174.6458 547.8072 172.9558 548.6244 172.1555 549.2265 170.3172 548.8185 168.8879 547.6279 167.7359 546.6888 165.8343 546.6512 164.7019 543.9825 163.853 543.7642 162.1679 542.2126 161.4938 541.0917 160.2125 540.8724 158.8532 539.2638 158.0885 538.8904 156.399 537.7713 155.8696 537.012 154.7344 537.9733 154.3732 535.9291 152.5277 534.7847 152.2062 534.9393 151.2453 532.9405 149.7985 533.8316 148.3816 531.6905 147.3383 532.0502 146.5284 530.7865 145.887 530.9441 145.1649 533.6766 144.4042 535.7416 142.6419 537.2378 142.4903 534.8137 138.6109 536.1015 137.2669 537.9903 138.609 539.3991 138.3779 540.1091 136.9365 540.1444 135.6814 539.1674 134.3183 538.2047 131.3527 536.1952 129.9533 538.4933 127.8726 537.85 126.8621 539.4579 124.182 541.7026 123.9085 541.5543 122.5141 543.5014 121.2879 543.8978 119.5411 545.9005 119.9218 547.7448 118.6552 553.0649 118.8024 554.9884 118.5604 556.0672 119.789 551.8822 121.6977 551.9864 123.5884 551.6891 125.315 552.2907 127.2541 550.8751 127.43 550.0516 128.97 550.8396 130.193 549.6721 130.9115 549.3131 132.355 550.5151 132.9547 554.2175 131.8471 557.1401 130.4788 557.3355 131.537 558.2977 132.8635 557.9015 133.9707 559.274 134.1166 560.7843 133.6594 561.8955 134.2124 562.4399 135.2738 564.2755 135.4326 566.1201 134.5116 567.6804 134.9784 568.2352 136.3442 571.9679 135.7007 573.5688 137.306 574.4608 137.5298 575.9999 136.373 577.2989 137.2658 Z"/>
<path d="M 588.0478 101.5777 601.4863 90.576 602.4502 89.9927 604.3125 90.1371 605.387 92.0967 606.724 92.228 607.2024 91.0481 608.3412 90.7712 609.1275 91.6897 610.7217 90.7359 611.2168 91.8122 613.8256 91.9641 613.2509 93.8763 616.0837 93.5726 616.6211 94.1448 615.4047 95.2808 616.2659 96.1395 617.2753 95.9001 618.1364 97.1277 617.5675 99.4037 618.9935 99.2348 620.1196 101.015 621.5022 100.588 622.9412 103.7693 624.1602 102.1382 625.6345 103.3197 626.59 103.1463 627.1285 102.097 628.412 103.6249 625.9015 105.1542 625.7502 106.4224 626.4765 107.9701 627.3436 108.2717 628.9399 107.3851 629.2648 106.487 631.0788 106.4206 632.7903 107.2982 633.0314 107.925 632.0103 109.6065 632.4652 109.9646 634.5861 109.179 636.118 109.6019 635.7304 111.1739 636.5172 114.2133 637.2928 113.9287 637.4926 112.6062 640.2664 113.1159 641.8881 113.0022 642.0661 114.5115 640.2579 114.5219 638.3552 116.1039 639.8432 116.9043 641.9799 116.5143 641.8238 117.4054 640.4395 118.3931 642.0493 120.013 643.3848 119.7786 643.3046 118.8103 645.1419 118.2237 644.0503 127.8555 638.6257 133.3121 638.3018 135.0032 638.7251 136.3353 636.4243 137.4061 634.3634 140.1614 631.8038 140.7048 628.7277 140.9207 627.1026 139.4594 625.5462 139.1838 624.4532 140.1809 616.3806 151.6444 612.0449 151.7814 608.7389 154.6607 606.4911 155.7244 605.65 156.7918 604.3048 157.6011 605.8694 160.1102 604.9513 160.4189 603.3151 160.0866 599.7981 162.232 600.6242 162.9343 595.6417 169.9181 597.7732 172.5672 597.5179 174.2062 598.1925 174.9074 597.9106 176.8147 599.887 179.5469 601.4782 179.9184 602.2615 180.7949 602.5281 182.3738 603.6901 183.7133 604.8411 186.8268 606.4851 189.0725 608.6081 190.9331 607.5341 192.3074 604.4451 192.1908 600.0896 194.789 598.1177 194.751 598.6573 196.0436 597.4516 196.9843 597.4588 197.8343 596.2211 199.152 596.0611 200.3499 594.2091 199.5669 591.9919 199.896 591.6151 200.4491 591.9531 205.2727 590.3058 207.9363 588.9854 208.6597 589.4595 209.6 591.1463 211.0652 592.7713 213.5278 592.4994 214.0829 594.1893 215.5024 595.8418 215.4246 597.73 214.557 599.7169 216.1071 600.1595 217.4417 599.1243 218.576 597.4982 219.1822 599.2074 220.9221 598.7209 222.0236 597.1894 222.4413 595.7785 223.4668 593.882 223.2255 593.8816 224.2953 592.6316 226.3656 592.4709 227.5036 590.8016 228.3696 589.9935 229.4657 585.8389 229.02 584.7204 228.395 582.3138 228.2508 581.349 229.5047 579.2482 229.5563 577.6918 230.2361 575.8103 231.7841 571.6821 230.3285 569.9197 230.4804 569.7902 231.7495 567.4447 233.3419 565.7677 232.5619 562.0704 232.7508 558.4016 230.9608 556.7467 231.0825 554.5152 232.7494 552.8106 233.1447 551.6711 232.7224 549.4294 233.4268 548.0437 233.3875 547.0847 232.7855 548.154 231.3317 549.5491 230.0368 549.0752 228.1537 550.5844 227.9177 552.4534 227.1284 552.8352 226.3133 550.9078 224.492 552.1664 224.0454 553.239 224.3627 553.9274 223.0167 552.4569 222.7961 552.3985 220.9654 551.6969 219.8843 554.0877 217.8435 555.7964 217.701 556.3248 216.3331 555.2175 215.4403 555.553 214.0649 554.8857 211.7985 555.3905 211.0863 555.8382 208.8587 557.5402 208.1977 556.5646 207.3791 556.2393 206.2727 558.0264 205.9417 558.5533 205.3938 557.737 203.5276 558.6107 203.0892 559.1038 201.8471 560.4332 202.9976 561.1719 200.9694 562.8685 201.5402 563.035 197.5589 564.6531 197.5652 565.1049 196.9527 567.855 194.9025 568.4318 195.3892 570.1395 195.2226 571.4897 194.0825 570.4142 192.5885 571.5524 192.0598 572.1804 189.4399 567.9427 186.491 567.9538 185.3083 568.9789 183.0822 567.9358 182.1944 565.8672 178.9717 565.1386 176.7767 564.3668 175.884 564.3038 173.2118 564.7349 172.1126 567.6955 168.3715 570.8204 167.6042 576.2465 167.4581 573.921 163.3087 572.4068 159.438 573.9283 157.9924 575.6451 157.4118 575.401 155.4989 576.0984 153.9038 575.3185 151.3799 576.1101 150.8037 575.5827 149.6841 576.6842 149.3064 577.2213 148.2118 576.3386 147.457 577.1049 146.3772 574.9089 145.6137 575.5011 144.4326 577.9737 142.7339 577.6656 141.9136 575.3234 141.2089 573.8206 142.2852 573.1123 141.022 574.5011 139.7594 574.8447 138.6871 576.794 138.5965 577.2989 137.2658 577.7513 140.3067 581.2094 138.4711 581.579 139.3021 583.0178 138.9332 583.9425 139.3966 585.5243 138.8946 583.5976 136.8996 585.1163 136.1046 586.0918 134.6283 585.9092 133.6554 586.7679 132.3463 586.5946 130.4546 588.1142 129.2303 589.9673 128.7576 595.3697 130.566 597.8997 130.9093 598.4659 131.7928 599.7626 131.6159 602.0921 132.0141 603.7532 131.654 605.4106 131.9801 608.6335 131.4507 609.66 130.7672 610.4422 129.2363 609.3176 128.2124 609.8588 125.8556 609.3996 124.6556 610.4053 123.2622 611.2441 121.1351 606.545 117.4103 604.539 113.2623 598.1835 107.4302 592.8221 106.2013 590.3071 105.075 588.7297 104.9942 589.3777 103.8488 587.9607 102.5869 588.0478 101.5777 Z"/>
<path d="M 389.259 99.7386 388.4475 101.01 391.0075 102.4495 390.1404 103.268 393.6231 103.2848 394.2677 104.4375 396.9221 105.5321 399.1632 105.3882 398.546 101.9123 400.885 100.2052 401.9552 104.1791 402.5881 103.7396 403.993 105.099 405.5263 102.995 406.2722 103.7082 406.3226 105.2729 405.825 105.8373 409.6176 106.0822 409.9144 107.2735 409.4079 108.5316 406.3345 107.6249 405.3549 109.6197 403.4019 109.5701 403.1338 110.921 401.5681 109.4436 402.1866 108.5072 401.8111 107.5272 399.7188 107.5465 399.2289 109.1869 395.9933 109.5354 393.2793 111.3716 391.1395 112.4727 389.863 112.5087 389.0558 111.7299 385.7572 110.105 385.3395 106.8284 385.888 103.5451 387.9641 100.7934 389.259 99.7386 Z"/>
<path d="M 389.259 99.7386 391.3844 98.3856 392.7248 96.5053 393.0887 93.7309 394.5318 92.2096 398.8312 91.4483 400.3795 92.2912 400.9103 93.1719 403.3427 93.4758 405.9368 92.1761 408.0763 94.4668 407.3185 95.0908 406.1739 95.6793 404.5905 95.4052 404.6116 94.6227 401.0034 95.8851 399.4422 95.7053 399.2032 97.0191 397.8315 96.8061 396.7505 100.3948 398.546 101.9123 399.1632 105.3882 396.9221 105.5321 394.2677 104.4375 393.6231 103.2848 390.1404 103.268 391.0075 102.4495 388.4475 101.01 389.259 99.7386 Z"/>
<path d="M 403.3407 141.6105 402.9781 140.7044 399.6859 138.4397 398.3261 138.3363 396.755 137.1278 394.9489 136.6614 392.8009 134.5062 393.9279 132.2592 393.6436 130.3518 392.099 130.0396 391.051 127.5485 388.4317 127.2195 386.9197 128.1065 385.7711 127.8438 386.2341 125.0063 385.5339 122.6854 383.5577 122.6097 382.7047 122.0935 384.9721 119.626 388.947 117.3265 395.0315 115.6479 396.4664 112.7803 395.1001 111.4628 394.216 111.3111 392.4661 112.3234 391.1395 112.4727 393.2793 111.3716 395.9933 109.5354 399.2289 109.1869 399.7188 107.5465 401.8111 107.5272 402.1866 108.5072 401.5681 109.4436 403.1338 110.921 403.4019 109.5701 405.3549 109.6197 408.849 109.5956 410.5897 109.2366 412.7192 108.9867 413.0123 110.165 416.5513 110.3626 416.1732 109.6628 416.391 107.3118 417.9726 106.9537 419.5477 106.8649 420.2432 107.6004 422.9603 107.6814 423.9212 108.4085 423.2756 111.3863 422.1035 110.9509 420.5484 111.2631 420.0496 111.9873 421.2495 113.9325 422.286 114.0274 426.6285 112.4564 430.4063 111.2605 435.7648 109.3396 435.5946 110.5107 434.7996 111.0707 433.3484 111.0306 431.5262 111.6716 427.0313 120.4709 429.4301 122.7835 424.6967 125.4464 425.7751 126.2383 425.1538 127.3542 423.7924 128.0775 423.1462 129.3528 420.3278 130.5692 419.3039 131.5121 419.9296 134.0644 419.027 134.8774 416.3753 135.7397 416.7234 136.6513 414.9989 137.583 413.2614 139.2692 411.2498 140.243 408.226 140.9032 407.4822 141.6757 405.6445 141.8594 403.3407 141.6105 Z"/>
<path d="M 398.546 101.9123 396.7505 100.3948 397.8315 96.8061 399.2032 97.0191 399.4422 95.7053 401.0034 95.8851 404.6116 94.6227 404.5905 95.4052 406.1739 95.6793 406.4582 96.7856 405.4284 97.3544 403.0186 96.8599 402.9318 97.9799 401.8884 98.6283 401.9647 101.2861 403.0152 101.7355 406.1711 101.7472 406.9945 101.0011 410.321 99.5613 411.2464 100.7285 412.6381 101.4591 414.2701 101.2181 414.8227 100.2742 416.6599 100.7991 415.3981 104.1811 416.4156 104.975 413.263 105.5916 413.2135 107.0421 411.7549 107.1717 410.5897 109.2366 408.849 109.5956 405.3549 109.6197 406.3345 107.6249 409.4079 108.5316 409.9144 107.2735 409.6176 106.0822 405.825 105.8373 406.3226 105.2729 406.2722 103.7082 405.5263 102.995 403.993 105.099 402.5881 103.7396 401.9552 104.1791 400.885 100.2052 398.546 101.9123 Z"/>
<path d="M 406.1739 95.6793 407.3185 95.0908 408.4948 95.9986 410.246 95.6122 411.016 97.3518 413.06 96.506 415.4454 96.7749 417.4622 98.7676 419.1857 99.5306 418.2726 101.5013 418.2241 102.4607 419.4576 103.4853 419.7582 105.0271 418.6352 105.4673 417.9726 106.9537 416.391 107.3118 416.1732 109.6628 416.5513 110.3626 413.0123 110.165 412.7192 108.9867 410.5897 109.2366 411.7549 107.1717 413.2135 107.0421 413.263 105.5916 416.4156 104.975 415.3981 104.1811 416.6599 100.7991 414.8227 100.2742 414.2701 101.2181 412.6381 101.4591 411.2464 100.7285 410.321 99.5613 406.9945 101.0011 406.1711 101.7472 403.0152 101.7355 401.9647 101.2861 401.8884 98.6283 402.9318 97.9799 403.0186 96.8599 405.4284 97.3544 406.4582 96.7856 406.1739 95.6793 Z"/>
<path d="M 431.6338 91.7686 437.5997 93.8095 435.8963 96.3945 436.1791 97.5654 434.9326 97.6586 433.9607 99.2561 431.4499 100.8825 430.4376 99.6128 431.3293 98.4601 429.7344 98.2322 429.6737 96.6774 427.9097 96.805 427.7745 98.3176 425.8579 97.5375 422.4704 98.327 420.5051 98.3657 418.8339 97.9146 417.4622 98.7676 415.4454 96.7749 413.06 96.506 413.3898 95.8769 411.9672 95.1516 414.2122 93.9821 413.9995 92.3324 416.32 91.0995 419.6716 89.9875 421.082 88.9786 422.7091 88.3865 425.4666 88.3329 431.6338 91.7686 Z"/>
<path d="M 407.3185 95.0908 408.0763 94.4668 405.9368 92.1761 410.0799 89.9775 411.9914 87.7119 413.6571 83.8156 413.8605 81.5775 415.6631 77.2268 417.3334 75.3998 419.2671 74.4238 425.6953 73.6297 428.4535 72.4867 430.2678 70.4074 430.9077 68.7823 432.4867 67.6918 435.309 66.6049 437.4075 67.2881 441.0235 67.1894 442.5293 68.367 443.9126 68.2239 445.2055 68.8752 446.7935 69.0838 447.705 70.0019 444.4516 73.4293 445.9587 75.1651 446.6565 79.2888 449.7386 82.4219 451.0636 84.1116 446.7215 89.1579 443.8508 89.9001 440.2517 89.3761 437.0336 89.9657 435.9312 90.9819 434.0607 90.2806 432.4116 91.6166 431.6338 91.7686 425.4666 88.3329 422.7091 88.3865 421.082 88.9786 419.6716 89.9875 416.32 91.0995 413.9995 92.3324 414.2122 93.9821 411.9672 95.1516 413.3898 95.8769 413.06 96.506 411.016 97.3518 410.246 95.6122 408.4948 95.9986 407.3185 95.0908 Z"/>
<path d="M 470.1064 117.8768 456.3824 112.3864 445.0053 108.9953 436.2678 106.2807 435.8874 108.5561 431.8141 107.695 429.3689 108.9473 426.7512 108.0366 426.4773 107.1245 427.6695 105.2041 426.9651 102.0009 424.5432 102.219 423.0476 102.7375 420.8145 102.8874 419.4576 103.4853 418.2241 102.4607 418.2726 101.5013 419.1857 99.5306 417.4622 98.7676 418.8339 97.9146 420.5051 98.3657 422.4704 98.327 425.8579 97.5375 427.7745 98.3176 427.9097 96.805 429.6737 96.6774 429.7344 98.2322 431.3293 98.4601 430.4376 99.6128 431.4499 100.8825 433.9607 99.2561 434.9326 97.6586 436.1791 97.5654 435.8963 96.3945 437.5997 93.8095 431.6338 91.7686 432.4116 91.6166 434.0607 90.2806 435.9312 90.9819 437.0336 89.9657 440.2517 89.3761 443.8508 89.9001 446.7215 89.1579 451.0636 84.1116 449.7386 82.4219 446.6565 79.2888 445.9587 75.1651 444.4516 73.4293 447.705 70.0019 446.7935 69.0838 445.2055 68.8752 443.9126 68.2239 442.5293 68.367 441.0235 67.1894 437.4075 67.2881 435.309 66.6049 436.3375 65.8186 437.1399 64.2526 437.1155 62.4704 434.9825 58.8142 434.6226 57.435 434.7426 52.529 433.0154 50.0911 432.8356 48.9344 433.3256 47.0889 434.9826 45.1207 437.9534 44.21 441.7034 44.9138 443.6561 44.8142 448.6732 43.7469 450.4145 43.6604 453.5969 44.1433 454.9466 44.8469 457.567 48.0075 459.2736 48.965 461.0141 49.4297 462.6124 49.3797 466.9217 47.8119 470.3595 45.2924 473.1092 43.7991 475.2751 43.0517 478.3063 41.6065 484.6927 50.2676 487.6456 52.105 487.3889 53.2947 484.565 53.3033 483.4383 54.7903 481.5934 55.4081 479.1998 55.2358 479.4167 56.2881 478.2244 57.1498 476.5388 57.5359 475.6284 57.1242 473.6449 58.152 472.9958 59.2756 472.7858 60.8662 474.2527 62.3994 476.2995 61.396 479.8108 62.7367 480.5455 63.5716 479.4835 64.1382 479.2938 65.2347 478.1199 66.7025 477.6379 68.0375 478.9524 68.6705 480.0219 67.7051 482.3464 67.2333 483.1714 67.8034 481.5977 69.666 481.9523 70.53 484.0872 71.1939 485.3045 71.9445 485.8326 73.6975 484.6303 75.7642 485.5611 76.7663 487.1505 76.7705 487.2622 74.3899 488.2281 73.1711 489.7093 73.1889 490.237 74.4983 488.6441 75.2941 488.6764 76.4149 491.7078 77.0803 493.3435 77.9933 491.5232 80.7955 491.8614 82.2955 494.5922 82.997 494.5575 84.1545 492.0726 84.412 490.6138 82.3451 481.0197 86.4765 485.2922 86.8255 480.8905 92.8559 480.6665 97.9954 479.9897 103.2975 480.3721 104.889 478.676 106.9033 478.0409 108.7167 476.6533 109.1672 475.0507 112.9346 475.318 113.9185 474.2998 115.1903 473.2513 115.7208 471.9988 117.4972 470.1064 117.8768 Z"/>
<path d="M 477.6081 160.6117 453.7698 160.6504 448.1084 158.4533 445.0166 158.4905 443.7245 157.7741 443.028 156.7848 441.5193 156.1079 442.0026 154.6193 441.5278 153.3949 439.4437 151.6027 438.8652 150.1343 440.2291 149.0957 441.5923 149.2111 441.3995 147.2426 442.0743 146.6374 443.7303 147.3395 443.4278 144.8063 445.3142 144.9205 445.476 144.2284 447.2499 144.1398 448.4238 143.5078 447.8451 142.335 448.5026 140.8118 451.6923 138.7627 454.9022 137.1757 456.4334 136.9613 458.0782 135.3438 459.2192 136.1548 461.7359 133.1226 464.5879 133.8491 464.7378 132.5718 465.2923 133.2716 466.8025 132.4565 467.6675 130.5801 469.6293 131.3523 469.5536 132.9676 471.4924 133.626 476.0421 133.1842 478.4332 133.7488 479.0574 132.8069 482.1191 131.7302 482.9644 130.7297 483.5718 128.5878 485.2477 128.4053 485.3644 127.475 487.7979 126.6221 491.734 127.3034 492.9344 128.1094 495.9999 126.9101 502.1515 124.9483 502.0543 125.6384 499.6862 126.9633 502.0918 128.4577 499.5593 129.4969 499.0319 130.6543 500.267 130.9955 501.264 130.4132 502.2917 130.7929 501.6415 132.2609 503.6444 131.5165 503.9291 133.3218 505.3427 133.4828 506.0637 135.0336 504.7564 135.9538 504.4898 136.8188 505.418 137.8164 507.5772 137.4937 510.0889 136.3051 511.2206 136.3305 516.4456 121.4056 516.7224 119.9225 519.704 110.8103 519.5789 111.9709 520.8779 114.2094 524.2435 115.5914 528.1291 115.4754 528.8999 117.3155 528.9033 118.6219 526.6218 117.9402 525.8858 118.1715 524.8063 120.9976 523.6942 122.1678 523.5997 123.2425 535.4278 128.1073 536.1952 129.9533 538.2047 131.3527 539.1674 134.3183 540.1444 135.6814 540.1091 136.9365 539.3991 138.3779 537.9903 138.609 536.1015 137.2669 534.8137 138.6109 537.2378 142.4903 535.7416 142.6419 533.6766 144.4042 530.9441 145.1649 530.7865 145.887 532.0502 146.5284 531.6905 147.3383 533.8316 148.3816 532.9405 149.7985 534.9393 151.2453 534.7847 152.2062 535.9291 152.5277 537.9733 154.3732 537.012 154.7344 537.7713 155.8696 538.8904 156.399 539.2638 158.0885 540.8724 158.8532 541.0917 160.2125 542.2126 161.4938 543.7642 162.1679 543.9825 163.853 546.6512 164.7019 546.6888 165.8343 547.6279 167.7359 548.8185 168.8879 549.2265 170.3172 548.6244 172.1555 547.8072 172.9558 548.4149 174.6458 546.431 177.3065 538.8449 175.9139 538.1964 175.1811 536.0653 175.0142 520.8185 164.6346 520.416 163.5259 519.326 163.8006 517.6272 162.7927 517.24 161.9864 518.1169 160.5472 516.7291 160.2817 517.3328 158.7893 515.8341 158.3376 514.5543 159.0578 514.4609 160.0285 512.9185 159.5952 514.4796 158.3407 512.4487 156.6923 514.327 155.9066 513.7526 154.682 512.5706 155.3109 511.8131 153.6265 509.9119 154.1349 507.6752 153.5468 508.7125 152.2456 507.5503 152.0011 502.4404 151.5617 500.9403 152.8917 489.3596 154.4163 480.7923 155.4639 478.1487 155.6031 477.6081 160.6117 Z"/>
<path d="M 536.1952 129.9533 535.4278 128.1073 523.5997 123.2425 523.6942 122.1678 524.8063 120.9976 525.8858 118.1715 526.6218 117.9402 528.9033 118.6219 527.8751 120.1505 528.6273 121.3753 529.8722 119.2885 530.7638 120.1394 533.6914 121.8393 536.0891 120.4776 537.2202 121.7041 536.3239 122.5211 533.7918 122.7508 535.4545 124.0563 535.5027 125.4493 540.9404 121.3913 541.3262 120.7609 542.5785 119.5657 541.6444 118.4055 541.6519 117.4852 545.4885 118.0753 547.7448 118.6552 545.9005 119.9218 543.8978 119.5411 543.5014 121.2879 541.5543 122.5141 541.7026 123.9085 539.4579 124.182 537.85 126.8621 538.4933 127.8726 536.1952 129.9533 Z"/>
<path d="M 528.1291 115.4754 530.3908 114.0112 533.7591 113.9502 534.2664 112.7733 535.5974 111.7141 536.6546 112.3555 537.62 113.6935 536.1965 114.7534 537.8953 116.4742 535.6281 118.7494 536.9369 119.7361 537.5024 118.9914 539.2811 119.9181 539.9313 119.6569 541.3262 120.7609 540.9404 121.3913 535.5027 125.4493 535.4545 124.0563 533.7918 122.7508 536.3239 122.5211 537.2202 121.7041 536.0891 120.4776 533.6914 121.8393 530.7638 120.1394 529.8722 119.2885 528.6273 121.3753 527.8751 120.1505 528.9033 118.6219 528.8999 117.3155 528.1291 115.4754 Z"/>
<path d="M 464.7378 132.5718 463.0136 123.7608 463.783 122.792 466.1891 121.9964 467.0201 122.2335 467.8264 120.6859 467.5029 119.6639 469.3031 118.94 470.1064 117.8768 471.9988 117.4972 473.2513 115.7208 474.2998 115.1903 475.318 113.9185 475.0507 112.9346 476.6533 109.1672 478.0409 108.7167 478.676 106.9033 480.3721 104.889 479.9897 103.2975 480.6665 97.9954 480.8905 92.8559 485.2922 86.8255 481.0197 86.4765 490.6138 82.3451 492.0726 84.412 494.5575 84.1545 494.5922 82.997 491.8614 82.2955 491.5232 80.7955 493.3435 77.9933 491.7078 77.0803 488.6764 76.4149 488.6441 75.2941 490.237 74.4983 489.7093 73.1889 488.2281 73.1711 487.2622 74.3899 487.1505 76.7705 485.5611 76.7663 484.6303 75.7642 485.8326 73.6975 485.3045 71.9445 484.0872 71.1939 481.9523 70.53 481.5977 69.666 483.1714 67.8034 482.3464 67.2333 480.0219 67.7051 478.9524 68.6705 477.6379 68.0375 478.1199 66.7025 479.2938 65.2347 479.4835 64.1382 480.5455 63.5716 479.8108 62.7367 476.2995 61.396 474.2527 62.3994 472.7858 60.8662 472.9958 59.2756 473.6449 58.152 475.6284 57.1242 476.5388 57.5359 478.2244 57.1498 479.4167 56.2881 479.1998 55.2358 481.5934 55.4081 483.4383 54.7903 484.565 53.3033 487.3889 53.2947 487.6456 52.105 484.6927 50.2676 478.3063 41.6065 481.6221 39.8522 482.8744 39.742 486.2374 40.173 487.7527 39.9612 492.6049 38.1429 495.2599 38.5313 498.0362 39.246 500.4505 38.9899 500.2975 37.5702 498.9102 35.6213 499.041 33.7374 502.2867 31.5649 504.0027 31.4743 504.0614 32.5916 505.9626 32.6261 506.937 34.3292 516.4486 39.9831 503.7847 41.2552 503.257 45.9849 504.461 56.6875 514.9771 63.3688 515.7309 65.8285 516.6958 65.716 518.9617 68.8715 519.96 70.7355 522.6765 71.1675 524.7997 72.0084 520.282 76.4133 517.5661 77.9526 511.6331 82.8434 508.001 84.7051 508.2973 90.4648 509.0802 99.8679 510.0109 102.2634 510.7756 103.3397 511.9268 102.97 513.9629 103.3862 516.9103 102.9094 516.7848 104.82 517.4803 106.5558 519.1839 108.5388 518.0329 109.5234 519.2542 110.1289 520.125 109.548 519.704 110.8103 516.7224 119.9225 516.4456 121.4056 511.2206 136.3305 510.0889 136.3051 507.5772 137.4937 505.418 137.8164 504.4898 136.8188 504.7564 135.9538 506.0637 135.0336 505.3427 133.4828 503.9291 133.3218 503.6444 131.5165 501.6415 132.2609 502.2917 130.7929 501.264 130.4132 500.267 130.9955 499.0319 130.6543 499.5593 129.4969 502.0918 128.4577 499.6862 126.9633 502.0543 125.6384 502.1515 124.9483 495.9999 126.9101 492.9344 128.1094 491.734 127.3034 487.7979 126.6221 485.3644 127.475 485.2477 128.4053 483.5718 128.5878 482.9644 130.7297 482.1191 131.7302 479.0574 132.8069 478.4332 133.7488 476.0421 133.1842 471.4924 133.626 469.5536 132.9676 469.6293 131.3523 467.6675 130.5801 466.8025 132.4565 465.2923 133.2716 464.7378 132.5718 Z"/>
<path d="M 535.7403 64.6736 534.7961 68.2704 533.6859 67.8857 532.4955 68.3662 531.0074 68.297 527.8073 69.8841 527.8513 71.3479 528.6433 72.8825 530.4608 74.3653 530.3195 76.1966 532.4585 77.5399 533.7237 77.8792 536.5915 80.4128 537.6496 82.481 537.1754 84.1177 537.8396 86.3528 538.855 87.1883 540.3026 90.281 539.0556 91.6801 539.8784 93.7646 541.5163 95.193 541.2912 96.7373 541.8352 97.6721 541.4146 98.9835 543.5545 99.9177 520.5898 108.166 520.125 109.548 519.2542 110.1289 518.0329 109.5234 519.1839 108.5388 517.4803 106.5558 516.7848 104.82 516.9103 102.9094 513.9629 103.3862 511.9268 102.97 510.7756 103.3397 510.0109 102.2634 509.0802 99.8679 508.2973 90.4648 508.001 84.7051 511.6331 82.8434 517.5661 77.9526 520.282 76.4133 524.7997 72.0084 522.6765 71.1675 519.96 70.7355 518.9617 68.8715 516.6958 65.716 515.7309 65.8285 514.9771 63.3688 504.461 56.6875 503.257 45.9849 503.7847 41.2552 516.4486 39.9831 516.8621 38.6333 519.6078 37.2877 521.1052 37.3623 522.9638 29.2208 522.394 26.0188 521.5213 18.8253 525.0906 19.3566 526.9136 18.7179 528.0438 19.174 529.0391 18.5361 530.6156 19.0787 532.3494 18.7385 531.0915 17.2749 530.5896 14.9363 531.7887 14.2285 534.1129 14.1615 534.5992 15.3982 533.9559 17.2334 534.5055 18.8447 536.0429 20.362 535.443 21.6516 537.2667 21.8623 537.4389 22.9756 538.3013 24.0167 539.6643 26.5535 538.2456 31.4419 537.0942 32.1134 538.0777 33.4211 538.3424 35.4517 539.3056 35.715 540.5669 34.5878 541.4804 35.0741 541.8083 36.9731 529.864 38.4417 533.6395 56.0127 535.7403 64.6736 Z"/>
<path d="M 588.0478 101.5777 587.9607 102.5869 589.3777 103.8488 588.7297 104.9942 590.3071 105.075 592.8221 106.2013 598.1835 107.4302 604.539 113.2623 606.545 117.4103 611.2441 121.1351 610.4053 123.2622 609.3996 124.6556 609.8588 125.8556 609.3176 128.2124 610.4422 129.2363 609.66 130.7672 608.6335 131.4507 605.4106 131.9801 603.7532 131.654 602.0921 132.0141 599.7626 131.6159 598.4659 131.7928 597.8997 130.9093 595.3697 130.566 589.9673 128.7576 588.1142 129.2303 586.5946 130.4546 586.7679 132.3463 585.9092 133.6554 586.0918 134.6283 585.1163 136.1046 583.5976 136.8996 585.5243 138.8946 583.9425 139.3966 583.0178 138.9332 581.579 139.3021 581.2094 138.4711 577.7513 140.3067 577.2989 137.2658 575.9999 136.373 574.4608 137.5298 573.5688 137.306 571.9679 135.7007 568.2352 136.3442 567.6804 134.9784 566.1201 134.5116 564.2755 135.4326 562.4399 135.2738 561.8955 134.2124 560.7843 133.6594 559.274 134.1166 557.9015 133.9707 558.2977 132.8635 557.3355 131.537 557.1401 130.4788 554.2175 131.8471 550.5151 132.9547 549.3131 132.355 549.6721 130.9115 550.8396 130.193 550.0516 128.97 550.8751 127.43 552.2907 127.2541 551.6891 125.315 551.9864 123.5884 551.8822 121.6977 556.0672 119.789 554.9884 118.5604 553.0649 118.8024 547.7448 118.6552 545.4885 118.0753 541.6519 117.4852 541.6444 118.4055 542.5785 119.5657 541.3262 120.7609 539.9313 119.6569 539.2811 119.9181 537.5024 118.9914 536.9369 119.7361 535.6281 118.7494 537.8953 116.4742 536.1965 114.7534 537.62 113.6935 536.6546 112.3555 535.5974 111.7141 534.2664 112.7733 533.7591 113.9502 530.3908 114.0112 528.1291 115.4754 524.2435 115.5914 520.8779 114.2094 519.5789 111.9709 519.704 110.8103 520.125 109.548 520.5898 108.166 543.5545 99.9177 546.0069 99.5527 547.2065 101.1089 548.0367 101.2571 548.4472 103.0139 546.5029 105.214 546.9074 105.7106 547.1605 108.1481 546.1948 108.9155 545.8989 110.0954 547.8878 111.4099 549.5623 111.8063 551.4448 112.881 553.0126 112.668 555.5812 113.8431 555.665 114.7445 577.279 109.6826 579.3935 107.705 580.5072 107.3669 586.7624 103.3725 588.0478 101.5777 Z"/>
<path d="M 595.8169 40.9421 589.7093 52.861 586.1073 60.38 582.1943 60.4397 582.3506 59.1047 579.7138 59.5556 578.3912 58.382 576.204 59.1247 574.7653 60.088 573.7215 61.687 571.4535 63.46 570.3689 63.9285 568.1364 62.9646 565.8022 63.6398 563.5516 63.8167 562.8699 62.9506 564.3187 62.4381 564.1785 60.5353 543.7147 62.7916 542.4425 62.365 540.8262 65.0758 538.6745 65.3202 538.224 65.9049 535.7403 64.6736 533.6395 56.0127 529.864 38.4417 541.8083 36.9731 541.4804 35.0741 540.5669 34.5878 539.3056 35.715 538.3424 35.4517 538.0777 33.4211 537.0942 32.1134 538.2456 31.4419 539.6643 26.5535 538.3013 24.0167 537.4389 22.9756 537.2667 21.8623 538.5623 21.8181 540.8846 18.5557 539.5115 18.1812 538.2028 19.9414 537.0688 19.956 536.8345 18.8869 538.4359 16.9186 536.0516 16.0666 534.3858 14.3079 534.804 12.2241 533.4901 10.3811 533.9017 8.8963 532.9406 7.7585 532.6061 6.5232 533.8883 5.6996 535.1267 4.2859 537.5751 3.7547 538.8796 4.4058 540.0342 5.9223 540.5408 10.3585 542.4378 11.5977 547.8828 12.1717 550.2027 12.9865 552.7919 14.7953 554.2491 16.9051 554.6852 19.7824 555.6571 21.5367 558.753 24.6832 561.1682 27.9717 561.4022 29.9648 561.2323 32.9029 561.5754 34.8111 563.3631 36.9788 565.6993 37.6205 569.2925 38.1117 571.4628 38.6651 574.3049 39.7685 578.3021 40.7072 581.0522 40.6922 588.1091 38.9156 589.7357 38.9096 591.8488 39.44 593.3071 40.5528 595.8169 40.9421 Z"/>
<path d="M 516.4486 39.9831 506.937 34.3292 505.9626 32.6261 504.0614 32.5916 504.0027 31.4743 502.2867 31.5649 503.3806 29.6979 503.171 28.9181 500.2161 27.5397 494.5226 27.1022 493.6554 26.0693 493.6282 24.8895 494.771 23.5699 498.0763 20.9697 498.6325 19.7632 497.7169 17.6042 494.1664 13.5638 492.7756 12.5948 491.575 10.5272 492.864 9.3525 495.218 8.4276 498.3617 5.964 503.3945 4.1504 504.6798 2.557 506.9776 1.0029 509.2778 1.4705 510.3623 2.1614 513.3789 5.6795 517.3318 6.802 519.3455 8.4844 520.2643 8.7151 521.5213 18.8253 522.394 26.0188 522.9638 29.2208 521.1052 37.3623 519.6078 37.2877 516.8621 38.6333 516.4486 39.9831 Z"/>
<path d="M 521.5213 18.8253 520.2643 8.7151 521.9292 8.8265 525.3287 7.9917 527.6367 6.1724 529.0186 6.121 530.9048 6.8424 532.6061 6.5232 532.9406 7.7585 533.9017 8.8963 533.4901 10.3811 534.804 12.2241 534.3858 14.3079 536.0516 16.0666 538.4359 16.9186 536.8345 18.8869 537.0688 19.956 538.2028 19.9414 539.5115 18.1812 540.8846 18.5557 538.5623 21.8181 537.2667 21.8623 535.443 21.6516 536.0429 20.362 534.5055 18.8447 533.9559 17.2334 534.5992 15.3982 534.1129 14.1615 531.7887 14.2285 530.5896 14.9363 531.0915 17.2749 532.3494 18.7385 530.6156 19.0787 529.0391 18.5361 528.0438 19.174 526.9136 18.7179 525.0906 19.3566 521.5213 18.8253 Z"/>
</g>
</svg>